<svg width="174" height="114" viewBox="0 0 174 114" fill="none" xmlns="http://www.w3.org/2000/svg">
<path d="M145.58 48.2318C147.677 44.7648 153.578 47.3441 151.447 50.7968C141.898 66.2453 123.923 75.3781 105.772 72.8957C105.192 79.9623 101.358 85.2248 93.7816 88.6007C85.3209 92.3684 75.632 92.7161 66.5724 91.321C43.906 87.8255 22.91 75.0161 7.70091 58.4576C6.11606 56.7305 9.09436 54.6899 10.6734 56.3558C21.7036 67.9823 35.4119 76.9997 50.6137 82.4603C64.1538 87.3224 82.2309 90.6156 95.0112 81.9516C98.7812 79.3866 100.115 75.7158 100.215 71.7515C91.6762 69.4515 83.8752 64.9115 77.9331 58.4291C72.384 52.37 68.2022 42.6929 74.9766 35.8543C80.9607 29.8152 89.159 33.9006 93.786 39.2743C100.27 46.8083 104.226 57.0483 105.547 66.7682C121.203 69.2663 137.351 61.8449 145.58 48.2318ZM86.2286 40.3274C82.982 38.0787 79.228 38.5191 77.9346 42.6074C76.6151 46.7798 79.4281 50.8838 82.0598 53.929C86.6172 59.2015 92.8536 63.0746 99.5062 65.2791C99.0495 63.1986 98.4347 61.1594 97.8213 59.2742C95.7 52.7605 92.1402 44.4271 86.2286 40.3274Z" fill="#FA8E11"/>
<path d="M162.486 44.0272C157.589 54.3371 152.364 64.7096 146.268 74.3896C144.918 76.5271 141.824 74.317 142.62 72.2023C145.982 63.2775 150.044 54.508 154.198 45.8754C146.241 45.9736 138.341 47.1979 130.74 49.5106C126.845 50.6919 124.593 44.8665 128.524 43.6339C138.767 40.4205 149.232 39.0739 159.969 39.4543C162.14 39.5313 163.308 42.2958 162.486 44.0272Z" fill="#FA8E11"/>
</svg>
