<svg width="160" height="160" viewBox="0 0 160 160" fill="none" xmlns="http://www.w3.org/2000/svg">
<circle cx="79.8913" cy="81.344" r="72.6287" fill="#FA8E11"/>
<path d="M57.3431 111.51L55.1955 113.657L53.8351 112.269L55.9689 110.135C56.5904 109.514 56.9748 108.858 57.1221 108.167C57.274 107.472 57.2026 106.766 56.908 106.047C56.618 105.325 56.1231 104.613 55.4234 103.914L54.8778 103.368C54.3346 102.825 53.7914 102.406 53.2482 102.111C52.7096 101.812 52.1779 101.64 51.6531 101.594C51.1328 101.543 50.6265 101.617 50.1339 101.814C49.6459 102.008 49.1786 102.328 48.7321 102.774L46.481 105.025L45.0999 103.644L47.351 101.393C48.0185 100.726 48.7413 100.229 49.5193 99.9017C50.2927 99.5703 51.0891 99.4137 51.9085 99.4321C52.7326 99.446 53.5451 99.637 54.3461 100.005C55.1472 100.374 55.909 100.919 56.6318 101.642L57.1635 102.174C57.8863 102.896 58.4318 103.658 58.8001 104.459C59.1684 105.26 59.3594 106.073 59.3732 106.897C59.3824 107.716 59.219 108.52 58.8829 109.307C58.5469 110.085 58.0336 110.819 57.3431 111.51ZM46.1012 102.643L56.1553 112.697L54.4221 114.431L44.3679 104.376L46.1012 102.643ZM59.808 101.739L59.6492 101.58C59.1105 101.041 58.6893 100.464 58.3855 99.8467C58.077 99.2253 57.8998 98.5969 57.8538 97.9616C57.8077 97.3171 57.9044 96.6864 58.1438 96.0695C58.3832 95.4434 58.7745 94.8588 59.3177 94.3156C59.8655 93.7677 60.4502 93.3764 61.0717 93.1417C61.6931 92.8977 62.3261 92.7987 62.9706 92.8447C63.6105 92.8862 64.2412 93.0611 64.8627 93.3695C65.4796 93.6734 66.0573 94.0946 66.5959 94.6332L66.7548 94.792C67.2934 95.3306 67.7146 95.9084 68.0184 96.5253C68.3223 97.1421 68.4972 97.7728 68.5432 98.4173C68.5847 99.0572 68.488 99.6879 68.2532 100.309C68.0138 100.926 67.6225 101.506 67.0793 102.05C66.5315 102.597 65.9468 102.993 65.3253 103.237C64.7039 103.472 64.0732 103.569 63.4333 103.527C62.7888 103.481 62.1581 103.306 61.5412 103.002C60.9243 102.699 60.3466 102.277 59.808 101.739ZM61.3133 99.9158L61.4722 100.075C61.8082 100.411 62.1604 100.694 62.5287 100.924C62.897 101.154 63.2676 101.308 63.6404 101.387C64.0133 101.465 64.3793 101.453 64.7384 101.352C65.0975 101.251 65.4358 101.041 65.7535 100.724C66.0619 100.415 66.2645 100.084 66.3611 99.7293C66.4624 99.3703 66.4739 99.0043 66.3957 98.6314C66.3174 98.2585 66.1632 97.8879 65.933 97.5196C65.7074 97.1468 65.4266 96.7923 65.0906 96.4562L64.9317 96.2974C64.6003 95.9659 64.2504 95.6897 63.8821 95.4688C63.5138 95.2386 63.1387 95.0844 62.7566 95.0061C62.3791 94.9232 62.0108 94.9324 61.6517 95.0337C61.2926 95.1258 60.9566 95.3283 60.6435 95.6414C60.3305 95.9544 60.1256 96.2928 60.029 96.6565C59.9323 97.0109 59.9254 97.3769 60.0082 97.7544C60.0911 98.1319 60.2476 98.5048 60.4778 98.8731C60.7034 99.2368 60.9819 99.5843 61.3133 99.9158ZM67.8593 89.2404L73.7358 95.1169L72.0716 96.781L64.6 89.3095L66.1675 87.742L67.8593 89.2404ZM69.4268 91.4018L68.8813 91.9335C68.3565 91.3995 67.9445 90.8402 67.6453 90.2555C67.3506 89.6662 67.1734 89.0839 67.1136 88.5084C67.0583 87.9284 67.1274 87.3714 67.3207 86.8374C67.5095 86.2987 67.8271 85.8062 68.2737 85.3596C68.6327 85.0005 69.0079 84.7266 69.3992 84.5379C69.7905 84.3399 70.2002 84.2479 70.6284 84.2617C71.0611 84.2709 71.51 84.3975 71.9749 84.6415C72.4353 84.8808 72.9209 85.256 73.4319 85.767L78.2588 90.5939L76.5877 92.265L71.7539 87.4312C71.3949 87.0721 71.0588 86.842 70.7458 86.7407C70.4327 86.6302 70.1335 86.6302 69.8481 86.7407C69.5626 86.842 69.2749 87.0376 68.9849 87.3276C68.6995 87.6131 68.5038 87.9284 68.3979 88.2737C68.2921 88.6189 68.2644 88.9734 68.3151 89.3371C68.3703 89.6962 68.4923 90.0529 68.6811 90.4074C68.8698 90.7619 69.1184 91.0933 69.4268 91.4018ZM82.9541 82.9016L79.391 79.3384C79.124 79.0714 78.8455 78.8896 78.5554 78.7929C78.2654 78.6962 77.9685 78.6939 77.6646 78.786C77.3654 78.8735 77.0685 79.0645 76.7738 79.3591C76.5022 79.6308 76.3135 79.9116 76.2076 80.2016C76.1017 80.4916 76.0718 80.7701 76.1178 81.0371C76.1639 81.3042 76.2859 81.5366 76.4838 81.7346L74.8265 83.3919C74.5319 83.0972 74.3178 82.7405 74.1843 82.3215C74.0508 81.9026 74.0117 81.4492 74.067 80.9612C74.1222 80.4732 74.2764 79.9783 74.5296 79.4765C74.7828 78.9748 75.1442 78.4891 75.6138 78.0195C76.1754 77.4579 76.7669 77.0551 77.3884 76.8111C78.0145 76.5625 78.6429 76.5049 79.2736 76.6384C79.9043 76.7627 80.505 77.1103 81.0759 77.6812L84.3973 81.0026C84.738 81.3433 85.0672 81.6264 85.3848 81.852C85.7025 82.0683 86.0063 82.2295 86.2963 82.3354L86.4068 82.4458L84.7012 84.1515C84.4434 84.0502 84.1534 83.8844 83.8311 83.6543C83.5089 83.4149 83.2165 83.164 82.9541 82.9016ZM80.1506 79.6146L81.1933 80.6297L79.9986 81.8244C79.6902 82.1328 79.4485 82.4343 79.2736 82.729C79.094 83.019 78.9813 83.2975 78.9352 83.5645C78.8892 83.8315 78.9053 84.0824 78.9836 84.3172C79.0618 84.552 79.1999 84.7683 79.3979 84.9663C79.5958 85.1642 79.8237 85.3 80.0815 85.3737C80.3347 85.4428 80.5948 85.4358 80.8618 85.353C81.1334 85.2655 81.3958 85.0952 81.649 84.842C81.9897 84.5013 82.2176 84.1353 82.3326 83.744C82.4477 83.3435 82.4777 82.9683 82.4224 82.6185C82.3626 82.264 82.2452 81.9901 82.0702 81.7967L83.3477 81.997C83.4812 82.241 83.5894 82.5379 83.6723 82.8878C83.7551 83.2376 83.7874 83.6197 83.769 84.0341C83.7505 84.4392 83.6539 84.8535 83.4789 85.277C83.3086 85.6959 83.0301 86.0988 82.6434 86.4855C82.1554 86.9734 81.6237 87.3118 81.0483 87.5005C80.4682 87.6847 79.9043 87.7192 79.3564 87.6041C78.804 87.4844 78.316 87.2128 77.8925 86.7893C77.4966 86.3934 77.2204 85.9699 77.0639 85.5187C76.9074 85.0584 76.8705 84.5796 76.9534 84.0824C77.0409 83.5806 77.2434 83.065 77.5611 82.5356C77.8741 82.0016 78.3022 81.463 78.8455 80.9198L80.1506 79.6146ZM84.1001 69.8093L85.3155 71.0247L81.1032 75.2369L79.8879 74.0216L84.1001 69.8093ZM79.2733 70.9763L80.9375 69.3122L88.1743 76.549C88.4045 76.7791 88.6139 76.9241 88.8027 76.984C88.9914 77.0346 89.1664 77.0208 89.3275 76.9426C89.4886 76.8643 89.6497 76.7446 89.8109 76.5835C89.9259 76.4684 90.0295 76.351 90.1216 76.2313C90.2137 76.1116 90.285 76.0126 90.3357 75.9344L91.6131 77.1981C91.5165 77.3776 91.3922 77.5755 91.2403 77.7919C91.0929 78.0037 90.9019 78.227 90.6671 78.4617C90.285 78.8438 89.8799 79.1154 89.4518 79.2766C89.019 79.4331 88.5656 79.44 88.0914 79.2973C87.6173 79.1546 87.1247 78.8277 86.6137 78.3167L79.2733 70.9763ZM96.5709 72.5579C96.0185 73.1104 95.4292 73.5201 94.8031 73.7871C94.1771 74.0449 93.5441 74.1669 92.9042 74.1531C92.2689 74.1347 91.6474 73.9873 91.0397 73.7111C90.4321 73.4349 89.8727 73.0413 89.3617 72.5303L89.0855 72.2541C88.5009 71.6695 88.0566 71.0549 87.7528 70.4104C87.449 69.7659 87.2809 69.1237 87.2487 68.4838C87.2119 67.8393 87.3108 67.2201 87.5456 66.6263C87.7804 66.0324 88.1395 65.4938 88.6229 65.0104C89.1569 64.4764 89.7139 64.0989 90.294 63.8779C90.874 63.657 91.4587 63.5787 92.0479 63.6431C92.6372 63.6984 93.2195 63.8848 93.795 64.2025C94.375 64.5155 94.9343 64.9414 95.473 65.48L96.1842 66.1912L90.4113 71.9641L89.2167 70.7695L93.3461 66.6401L93.2149 66.5089C92.9065 66.2188 92.5658 65.9979 92.1929 65.846C91.8246 65.6894 91.4494 65.6411 91.0673 65.7009C90.6853 65.7608 90.3101 65.9749 89.9418 66.3431C89.6656 66.6194 89.4791 66.9255 89.3824 67.2615C89.2858 67.5884 89.2766 67.9337 89.3548 68.2973C89.4331 68.661 89.5896 69.0385 89.8244 69.4298C90.0592 69.8119 90.3699 70.1963 90.7566 70.583L91.0328 70.8592C91.3597 71.1861 91.7072 71.4462 92.0755 71.6395C92.4438 71.8237 92.819 71.9319 93.2011 71.9641C93.5832 71.9963 93.9584 71.948 94.3267 71.8191C94.6903 71.6856 95.031 71.46 95.3487 71.1423C95.7492 70.7418 96.0254 70.3045 96.1773 69.8303C96.3292 69.3562 96.373 68.8567 96.3085 68.3319L98.0348 68.3043C98.1085 68.7002 98.1246 69.1352 98.0832 69.6094C98.0371 70.0789 97.8944 70.5669 97.655 71.0733C97.4203 71.5751 97.0589 72.07 96.5709 72.5579ZM96.6739 52.0704L103.6 59.3279L102.177 60.7504L94.9131 53.8312L96.6739 52.0704ZM104.132 63.1465C103.879 62.8933 103.75 62.5987 103.745 62.2626C103.74 61.9174 103.888 61.5951 104.187 61.2959C104.482 61.0013 104.802 60.8562 105.147 60.8608C105.487 60.8608 105.784 60.9874 106.038 61.2406C106.282 61.4846 106.406 61.7793 106.41 62.1245C106.41 62.4652 106.263 62.7828 105.969 63.0775C105.669 63.3767 105.349 63.5263 105.009 63.5263C104.668 63.5171 104.376 63.3905 104.132 63.1465Z" fill="white"/>
<path d="M19.244 61.5807L17.0447 97.8694L57.1821 138.007L98.4192 140.756L138.557 100.619L138.007 57.1821L97.8694 17.0447L59.3814 21.4433L19.244 61.5807Z" stroke="white"/>
</svg>
