<svg width="120" height="120" viewBox="0 0 120 120" fill="none" xmlns="http://www.w3.org/2000/svg">
<circle cx="60" cy="60" r="59.5" fill="white" stroke="#FA8E11"/>
<path d="M58.059 45.5344L64.2774 47.1729C64.4886 47.2223 64.6776 47.3401 64.8149 47.5079C64.9523 47.6757 65.0304 47.8843 65.0371 48.101C65.0371 48.6281 64.5684 49.0635 63.9921 49.0635H59.9129C59.4733 49.0623 59.0381 48.9767 58.6307 48.8115C58.0303 48.5594 57.3382 48.6167 56.8776 49.0406L54.7005 51.0458C54.5998 51.134 54.5129 51.2367 54.4427 51.3506C54.3528 51.4981 54.293 51.6618 54.2667 51.8325C54.2404 52.0031 54.2482 52.1773 54.2895 52.345C54.3308 52.5126 54.4049 52.6704 54.5075 52.8093C54.6101 52.9482 54.7392 53.0654 54.8873 53.1542C56.093 53.8777 57.4429 54.3276 58.8416 54.4719V56.5C58.8416 57.5083 59.7388 58.3333 60.8319 58.3333H62.8222C63.9165 58.3333 64.8136 57.5083 64.8136 56.5V54.4833C68.5869 54.0708 71.4411 50.9312 70.9439 47.2646C70.5829 44.6292 68.3703 42.5323 65.6089 41.799L59.3904 40.1604C59.1792 40.111 58.9903 39.9933 58.8529 39.8254C58.7155 39.6576 58.6374 39.4491 58.6307 39.2323C58.6307 38.7052 59.0994 38.2698 59.6757 38.2698H63.7549C64.196 38.2705 64.6329 38.3561 65.0417 38.5219C65.6409 38.774 66.3342 38.7167 66.7948 38.2927L68.9719 36.2875C69.0692 36.2012 69.1531 36.1008 69.2205 35.9896C69.3112 35.8422 69.3717 35.6783 69.3987 35.5074C69.4256 35.3365 69.4184 35.1619 69.3775 34.9938C69.3366 34.8257 69.2628 34.6673 69.1603 34.5279C69.0578 34.3885 68.9288 34.2707 68.7805 34.1815C67.5744 33.4579 66.2242 33.0081 64.8251 32.8637V30.8333C64.8251 29.825 63.9291 29 62.8348 29H60.8445C59.7502 29 58.8542 29.825 58.8542 30.8333V32.85C55.0855 33.2625 52.2255 36.4021 52.7228 40.0687C53.0826 42.7042 55.3021 44.801 58.059 45.5344ZM91.7705 66.5948C90.4184 65.3687 88.3101 65.449 86.8893 66.5948L76.3018 75.0625C75.0021 76.1051 73.3846 76.6713 71.7184 76.6667H58.1667C57.6804 76.6667 57.2141 76.4735 56.8703 76.1297C56.5265 75.7859 56.3333 75.3196 56.3333 74.8333C56.3333 74.3471 56.5265 73.8808 56.8703 73.537C57.2141 73.1931 57.6804 73 58.1667 73H67.1374C68.9593 73 70.6563 71.751 70.9473 69.9521C70.9832 69.7455 71.0008 69.5361 71 69.3265C70.9982 68.3552 70.6111 67.4243 69.9236 66.7382C69.2362 66.052 68.3046 65.6667 67.3333 65.6667H49C45.9081 65.6675 42.9104 66.731 40.5094 68.6791L35.1813 73H28.8333C28.3471 73 27.8808 73.1931 27.537 73.537C27.1932 73.8808 27 74.3471 27 74.8333V85.8333C27 86.3196 27.1932 86.7859 27.537 87.1297C27.8808 87.4735 28.3471 87.6667 28.8333 87.6667H69.7132C71.3788 87.668 72.9953 87.1022 74.2966 86.0625L91.625 72.1979C92.0418 71.8645 92.3809 71.4441 92.6184 70.9661C92.8559 70.4881 92.9862 69.964 93.0002 69.4304C93.0141 68.8968 92.9114 68.3666 92.6992 67.8769C92.4871 67.3871 92.1705 66.9495 91.7717 66.5948H91.7705Z" fill="#FA8E11"/>
</svg>
