<svg width="32" height="29" viewBox="0 0 32 29" fill="none" xmlns="http://www.w3.org/2000/svg">
<path d="M12.3681 0.0561523V2.51532C11.0102 1.92726 9.55419 1.62432 8.09816 1.62432C5.16973 1.62432 2.24131 2.83608 0 5.27743L5.44785 11.2115H7.2638V13.1895C8.67076 14.7221 10.5031 15.524 12.3517 15.6131V19.6582H7.46012V25.0042C7.46012 26.9644 8.93252 28.5682 10.7321 28.5682H27.092C29.8078 28.5682 32 26.1803 32 23.2222V0.0561523H12.3681ZM10.5521 11.4788V7.64749H6.82209L5.12065 5.79421C6.0706 5.39489 7.07993 5.1895 8.09816 5.18833C10.2904 5.18833 12.3354 6.11497 13.8896 7.79005L16.1963 10.3027L15.8691 10.6591C15.4581 11.1111 14.9688 11.4699 14.4297 11.7146C13.8905 11.9593 13.3121 12.0851 12.728 12.0847C11.9591 12.0847 11.2065 11.8708 10.5521 11.4788ZM28.728 23.2222C28.728 24.2023 27.9918 25.0042 27.092 25.0042C26.1922 25.0042 25.456 24.2023 25.456 23.2222V19.6582H15.6401V15.0428C16.5726 14.633 17.4397 14.0271 18.1922 13.2073L18.5194 12.8509L23.1493 17.8762H25.456V15.3636L15.6401 4.72501V3.62016H28.728V23.2222Z" fill="#FA8E11"/>
</svg>
