<svg width="26" height="30" viewBox="0 0 26 30" fill="none" xmlns="http://www.w3.org/2000/svg">
<path d="M12.3832 0.184398C12.5339 0.0659715 12.7168 0.00135137 12.905 2.09621e-05C13.0932 -0.00130945 13.2769 0.0607199 13.4291 0.177006C15.7179 1.92646 18.5291 2.96752 20.8085 3.56997C21.9412 3.86935 22.9272 4.05661 23.6279 4.16873C23.97 4.2232 24.3132 4.26962 24.6573 4.30795L24.7101 4.31411H24.7242C24.944 4.33387 25.1488 4.43954 25.2979 4.6102C25.447 4.78087 25.5296 5.00408 25.5294 5.23565V13.5517C25.5294 19.5011 21.7581 26.6296 13.1814 29.5236C13.0059 29.5829 12.817 29.5829 12.6415 29.5236C4.08236 26.6345 0 19.5184 0 13.2437V5.23565C0 4.75517 0.35213 4.35353 0.809899 4.31411H0.825158L0.881498 4.30795C0.93197 4.30302 1.00826 4.29563 1.10921 4.28331C1.30875 4.2599 1.60454 4.22294 1.97427 4.1675C2.71375 4.05538 3.75018 3.86689 4.92747 3.56751C7.302 2.96382 10.1754 1.92277 12.3832 0.184398ZM19.6864 10.2118C19.8542 10.0412 19.9506 9.80765 19.9543 9.56251C19.958 9.31737 19.8689 9.0807 19.7064 8.90459C19.5439 8.72847 19.3214 8.62732 19.0878 8.62339C18.8543 8.61946 18.6288 8.71308 18.461 8.88364L9.95823 17.5201L7.34073 15.024C7.16678 14.8675 6.94154 14.7883 6.71287 14.8033C6.48419 14.8183 6.2701 14.9263 6.11607 15.1043C5.96203 15.2824 5.8802 15.5164 5.88795 15.7568C5.8957 15.9971 5.99243 16.2248 6.15758 16.3915L9.38543 19.4716C9.55098 19.6295 9.7676 19.7154 9.99129 19.7117C10.215 19.708 10.4289 19.6151 10.5897 19.4519L19.6864 10.2118Z" fill="#FA8E11"/>
</svg>
