<svg width="120" height="120" viewBox="0 0 120 120" fill="none" xmlns="http://www.w3.org/2000/svg">
<circle cx="60" cy="60" r="59.5" fill="white" stroke="#FA8E11"/>
<path d="M85.2672 48.5897L79.9633 43.6809C78.7895 42.6041 77.2036 42 75.5509 42H50.2794C48.6303 42 47.0369 42.6084 45.867 43.6809L40.5631 48.5897H27.4148V74.9588H34.5461C36.5072 74.9588 38.0894 73.4944 38.1006 71.6897H39.1145L48.5412 79.5684C51.9842 82.1569 56.7644 82.2188 60.3078 79.9603C61.7006 81.0741 63.2048 81.6 64.8874 81.6C66.9153 81.6 68.8207 80.8369 70.325 79.125C72.7875 80.0222 75.6957 79.3931 77.4562 77.3925L80.3756 74.0616C80.9996 73.35 81.3896 72.5353 81.5902 71.6897H88.0417C88.0529 73.4944 89.6463 74.9588 91.5962 74.9588H98.7275V48.5897H85.2672ZM32.7632 71.6588C31.7827 71.6588 30.9804 70.9163 30.9804 70.0088C30.9804 69.1013 31.7827 68.3588 32.7632 68.3588C33.7438 68.3588 34.5461 69.1013 34.5461 70.0088C34.5461 70.9266 33.7438 71.6588 32.7632 71.6588ZM76.2194 70.9472L73.3112 74.2678C72.9992 74.6184 72.4421 74.6803 72.0521 74.3916L69.389 72.3909L66.0462 76.155C65.3777 76.9078 64.3748 76.65 64.0405 76.4025L59.9401 73.1541L58.2018 75.1341C56.653 76.8975 53.8339 77.1656 52.04 75.8147L41.1982 66.7397H38.1117V53.5294H42.7805L49.6554 47.1769C49.8783 47.0944 50.0677 47.0222 50.2906 46.9397H56.6084L52.2962 50.6006C49.0203 53.3747 48.8309 58.0566 51.806 61.0472C53.4551 62.7178 58.6252 65.2959 63.1157 61.5009L64.0294 60.7275L76.0857 69.7819C76.4646 70.0706 76.5203 70.5966 76.2194 70.9472ZM88.0306 66.7397H80.3199C80.0636 66.4509 79.7739 66.1828 79.4619 65.9456L68.0185 57.345L69.4113 56.1694C70.1356 55.5506 70.1913 54.5091 69.5227 53.8388L68.3082 52.6322C67.6396 51.9619 66.5142 51.9206 65.7899 52.5291L59.6392 57.7472C58.5807 58.6444 56.7756 58.7166 55.7839 57.7472C54.7476 56.7263 54.8368 55.1588 55.9176 54.2513L63.2271 48.0534C64.0517 47.3522 65.1214 46.9706 66.2356 46.9706L75.562 46.95C75.796 46.95 76.0189 47.0325 76.1748 47.1872L83.0498 53.5397H88.0306V66.7397ZM93.379 71.6588C92.3985 71.6588 91.5962 70.9163 91.5962 70.0088C91.5962 69.1013 92.3985 68.3588 93.379 68.3588C94.3596 68.3588 95.1618 69.1013 95.1618 70.0088C95.1618 70.9266 94.3596 71.6588 93.379 71.6588Z" fill="#FA8E11"/>
</svg>
