<svg width="120" height="119" viewBox="0 0 120 119" fill="none" xmlns="http://www.w3.org/2000/svg">
<path d="M119.5 59.1028C119.5 91.4612 92.8681 117.706 60 117.706C27.1319 117.706 0.5 91.4612 0.5 59.1028C0.5 26.7444 27.1319 0.5 60 0.5C92.8681 0.5 119.5 26.7444 119.5 59.1028Z" fill="white" stroke="#FA8E11"/>
<path d="M61.1275 44.6381L40.0018 61.7774V80.2757C40.0018 80.7546 40.1949 81.214 40.5387 81.5526C40.8825 81.8913 41.3489 82.0816 41.8351 82.0816L54.6753 82.0488C55.1599 82.0465 55.6239 81.8551 55.9657 81.5167C56.3076 81.1783 56.4995 80.7203 56.4995 80.2429V69.4401C56.4995 68.9612 56.6926 68.5018 57.0364 68.1632C57.3802 67.8245 57.8466 67.6342 58.3328 67.6342H65.6661C66.1523 67.6342 66.6187 67.8245 66.9625 68.1632C67.3063 68.5018 67.4994 68.9612 67.4994 69.4401V80.235C67.4987 80.4727 67.5456 80.7081 67.6374 80.9279C67.7291 81.1476 67.8641 81.3474 68.0344 81.5157C68.2047 81.6839 68.4071 81.8175 68.6299 81.9086C68.8527 81.9997 69.0915 82.0466 69.3328 82.0466L82.1684 82.0816C82.6546 82.0816 83.1209 81.8913 83.4648 81.5526C83.8086 81.214 84.0017 80.7546 84.0017 80.2757V61.765L62.8806 44.6381C62.6323 44.4409 62.323 44.3334 62.004 44.3334C61.6851 44.3334 61.3758 44.4409 61.1275 44.6381ZM94.4976 56.2874L84.9184 48.5095V32.8759C84.9184 32.5167 84.7735 32.1722 84.5157 31.9182C84.2578 31.6642 83.9081 31.5215 83.5434 31.5215H77.1267C76.7621 31.5215 76.4123 31.6642 76.1545 31.9182C75.8966 32.1722 75.7517 32.5167 75.7517 32.8759V41.0714L65.4931 32.7574C64.5086 31.9594 63.2733 31.5231 61.9983 31.5231C60.7234 31.5231 59.488 31.9594 58.5035 32.7574L29.4991 56.2874C29.3598 56.4008 29.2446 56.54 29.1601 56.6973C29.0755 56.8545 29.0232 57.0266 29.0062 57.2037C28.9891 57.3809 29.0077 57.5596 29.0608 57.7297C29.1139 57.8997 29.2006 58.0578 29.3157 58.1949L32.2376 61.6939C32.3524 61.8314 32.4937 61.9453 32.6533 62.0291C32.8129 62.1128 32.9877 62.1647 33.1677 62.1817C33.3476 62.1988 33.5293 62.1808 33.7022 62.1286C33.875 62.0765 34.0358 61.9913 34.1752 61.8779L61.1275 40.0104C61.3758 39.8133 61.6851 39.7058 62.004 39.7058C62.323 39.7058 62.6323 39.8133 62.8806 40.0104L89.834 61.8779C89.9732 61.9913 90.1337 62.0766 90.3063 62.1289C90.479 62.1813 90.6604 62.1996 90.8402 62.1828C91.0201 62.166 91.1948 62.1145 91.3544 62.0312C91.514 61.9479 91.6554 61.8344 91.7705 61.6973L94.6924 58.1983C94.8074 58.0604 94.8936 57.9015 94.9461 57.7307C94.9986 57.5599 95.0163 57.3805 94.9982 57.203C94.9801 57.0254 94.9266 56.8531 94.8406 56.696C94.7547 56.5388 94.6381 56.4 94.4976 56.2874Z" fill="#FA8E11"/>
</svg>
