<svg width="369" height="358" viewBox="0 0 369 358" fill="none" xmlns="http://www.w3.org/2000/svg">
<path d="M336.093 69.8169L334.143 66.619C317.746 39.5893 288.086 23.2883 256.811 25.2709C252.78 25.5114 248.772 26.0458 244.819 26.8699C216.398 32.9538 191.663 54.4513 181.406 81.9847C175.378 98.1737 173.691 116.817 162.219 129.672C147.325 146.397 122.046 146.925 99.8606 146.229C77.6756 145.534 52.3567 146.189 37.5347 162.978C28.253 173.491 25.3029 188.449 26.0544 202.527C28.0371 239.822 54.0356 273.16 87.0613 289.732C120.087 306.305 159.013 307.784 195.172 300.501C245.834 290.284 294.01 262.239 322.974 218.956C351.939 175.673 359.262 116.609 336.093 69.8169Z" fill="#EBEBEB"/>
<path d="M113.891 99.8446C131.102 99.8446 145.054 85.8925 145.054 68.6817C145.054 51.4708 131.102 37.5187 113.891 37.5187C96.6803 37.5187 82.7281 51.4708 82.7281 68.6817C82.7281 85.8925 96.6803 99.8446 113.891 99.8446Z" fill="#EBEBEB"/>
<path d="M363.139 340.85C363.139 340.962 281.906 341.058 181.717 341.058C81.529 341.058 0.279785 340.962 0.279785 340.85C0.279785 340.738 81.497 340.642 181.757 340.642C282.018 340.642 363.139 340.73 363.139 340.85Z" fill="#263238"/>
<path d="M297.919 296.792L197.083 296.728C191.259 296.723 185.675 294.407 181.559 290.287C177.442 286.168 175.13 280.582 175.13 274.759L175.178 21.9612C175.179 19.0761 175.748 16.2196 176.853 13.5545C177.958 10.8895 179.577 8.46826 181.618 6.42897C183.659 4.38969 186.081 2.77233 188.747 1.66925C191.413 0.566161 194.27 -0.0010486 197.155 1.45529e-06L297.991 0.0639582C300.877 0.0629081 303.734 0.630384 306.401 1.73397C309.067 2.83755 311.49 4.45562 313.531 6.49575C315.571 8.53588 317.19 10.9581 318.295 13.624C319.399 16.29 319.968 19.1474 319.968 22.0331L319.92 274.831C319.92 277.718 319.351 280.577 318.245 283.244C317.138 285.911 315.517 288.334 313.474 290.374C311.43 292.413 309.004 294.03 306.335 295.132C303.666 296.233 300.806 296.797 297.919 296.792Z" fill="#263238"/>
<path d="M297.887 9.00193H278.332C277.695 9.01542 277.067 9.15441 276.484 9.41094C275.901 9.66747 275.374 10.0365 274.934 10.4969C274.493 10.9573 274.148 11.5001 273.918 12.0941C273.687 12.6881 273.576 13.3217 273.591 13.9586V17.4762C273.605 18.1135 273.493 18.7473 273.262 19.3413C273.031 19.9354 272.685 20.4781 272.244 20.9384C271.803 21.3987 271.275 21.7676 270.692 22.024C270.108 22.2804 269.48 22.4194 268.842 22.4329H230.74C229.452 22.4056 228.228 21.8682 227.336 20.9388C226.444 20.0095 225.958 18.7641 225.983 17.4762V13.9266C226.011 12.6387 225.527 11.3925 224.636 10.4616C223.746 9.53068 222.522 8.99131 221.235 8.96195H197.251C195.23 8.9609 193.229 9.35798 191.362 10.1305C189.495 10.903 187.798 12.0359 186.369 13.4643C184.94 14.8927 183.806 16.5887 183.033 18.4554C182.259 20.3221 181.861 22.323 181.861 24.3436L181.813 271.089C181.813 275.168 183.432 279.08 186.315 281.965C189.198 284.851 193.108 286.474 197.187 286.479L297.823 286.535C301.903 286.535 305.816 284.914 308.702 282.03C311.588 279.146 313.21 275.233 313.213 271.153L313.26 24.4075C313.263 22.3865 312.867 20.3849 312.095 18.517C311.324 16.649 310.192 14.9513 308.764 13.5207C307.337 12.0902 305.641 10.9548 303.775 10.1795C301.909 9.40417 299.908 9.00402 297.887 9.00193Z" fill="white"/>
<path d="M297.887 9.00193H278.332C277.695 9.01542 277.067 9.15441 276.484 9.41094C275.901 9.66747 275.374 10.0365 274.934 10.4969C274.493 10.9573 274.148 11.5001 273.918 12.0941C273.687 12.6881 273.576 13.3217 273.591 13.9586V17.4762C273.605 18.1135 273.493 18.7473 273.262 19.3413C273.031 19.9354 272.685 20.4781 272.244 20.9384C271.803 21.3987 271.275 21.7676 270.692 22.024C270.108 22.2804 269.48 22.4194 268.842 22.4329H230.74C229.452 22.4056 228.228 21.8682 227.336 20.9388C226.444 20.0095 225.958 18.7641 225.983 17.4762V13.9266C226.011 12.6387 225.527 11.3925 224.636 10.4616C223.746 9.53068 222.522 8.99131 221.235 8.96195H197.251C195.23 8.9609 193.229 9.35798 191.362 10.1305C189.495 10.903 187.798 12.0359 186.369 13.4643C184.94 14.8927 183.806 16.5887 183.033 18.4554C182.259 20.3221 181.861 22.323 181.861 24.3436V48.5752H313.253V24.3915C313.253 20.3141 311.634 16.4033 308.753 13.5179C305.873 10.6325 301.964 9.00828 297.887 9.00193Z" fill="#EBEBEB"/>
<path d="M299.238 28.4128C299.24 28.75 299.141 29.08 298.955 29.361C298.769 29.6421 298.503 29.8616 298.192 29.9917C297.881 30.1219 297.539 30.1567 297.208 30.0919C296.877 30.0271 296.573 29.8656 296.334 29.6277C296.095 29.3899 295.932 29.0865 295.866 28.756C295.799 28.4254 295.832 28.0827 295.961 27.771C296.09 27.4594 296.308 27.193 296.588 27.0055C296.868 26.8181 297.198 26.718 297.535 26.718C297.985 26.718 298.417 26.8963 298.736 27.2139C299.056 27.5315 299.236 27.9626 299.238 28.4128Z" fill="#263238"/>
<path d="M299.238 33.0097C299.238 33.3465 299.138 33.6757 298.951 33.9558C298.764 34.2358 298.498 34.4541 298.187 34.583C297.876 34.7118 297.533 34.7456 297.203 34.6799C296.873 34.6142 296.569 34.452 296.331 34.2138C296.093 33.9757 295.931 33.6723 295.865 33.3419C295.799 33.0116 295.833 32.6692 295.962 32.3581C296.091 32.0469 296.309 31.781 296.589 31.5939C296.869 31.4067 297.198 31.3069 297.535 31.3069C297.759 31.3058 297.981 31.3491 298.188 31.4343C298.395 31.5195 298.583 31.6449 298.742 31.8033C298.9 31.9616 299.025 32.1497 299.111 32.3568C299.196 32.5639 299.239 32.7858 299.238 33.0097Z" fill="#263238"/>
<path d="M299.238 37.5986C299.24 37.9358 299.141 38.2658 298.955 38.5469C298.769 38.8279 298.503 39.0474 298.192 39.1775C297.881 39.3077 297.539 39.3425 297.208 39.2777C296.877 39.2129 296.573 39.0514 296.334 38.8135C296.095 38.5757 295.932 38.2723 295.866 37.9418C295.799 37.6112 295.832 37.2685 295.961 36.9568C296.09 36.6452 296.308 36.3788 296.588 36.1913C296.868 36.0039 297.198 35.9038 297.535 35.9038C297.758 35.9027 297.98 35.9458 298.186 36.0305C298.393 36.1152 298.58 36.2399 298.739 36.3973C298.897 36.5548 299.023 36.742 299.108 36.9482C299.194 37.1543 299.238 37.3754 299.238 37.5986Z" fill="#263238"/>
<path d="M302.716 62.8056C303.987 62.8056 305.018 61.7748 305.018 60.5032C305.018 59.2316 303.987 58.2007 302.716 58.2007C301.444 58.2007 300.413 59.2316 300.413 60.5032C300.413 61.7748 301.444 62.8056 302.716 62.8056Z" fill="#E0E0E0"/>
<path d="M299.838 64.0848C299.838 64.5401 299.703 64.9853 299.45 65.3639C299.197 65.7426 298.837 66.0377 298.416 66.2119C297.995 66.3862 297.533 66.4318 297.086 66.343C296.639 66.2541 296.229 66.0348 295.907 65.7128C295.585 65.3908 295.366 64.9806 295.277 64.5339C295.188 64.0873 295.234 63.6244 295.408 63.2036C295.582 62.7829 295.877 62.4233 296.256 62.1703C296.635 61.9173 297.08 61.7823 297.535 61.7823C298.146 61.7823 298.731 62.0249 299.163 62.4567C299.595 62.8885 299.838 63.4741 299.838 64.0848Z" fill="#E0E0E0"/>
<path d="M305.018 67.3785C305.018 67.8339 304.883 68.2791 304.63 68.6577C304.377 69.0363 304.017 69.3314 303.597 69.5057C303.176 69.68 302.713 69.7256 302.266 69.6367C301.82 69.5479 301.41 69.3286 301.088 69.0066C300.766 68.6846 300.546 68.2743 300.457 67.8277C300.369 67.3811 300.414 66.9181 300.588 66.4974C300.763 66.0767 301.058 65.7171 301.436 65.4641C301.815 65.2111 302.26 65.0761 302.716 65.0761C303.326 65.0761 303.912 65.3187 304.344 65.7504C304.776 66.1822 305.018 66.7679 305.018 67.3785Z" fill="#E0E0E0"/>
<path d="M302.06 67.7143L296.808 64.0768L302.476 60.1594L302.955 60.8469L298.271 64.0847L302.532 67.0348L302.06 67.7143Z" fill="#E0E0E0"/>
<path d="M280.642 54.0915H202.183C196.638 54.0915 192.142 58.5871 192.142 64.1327V65.0441C192.142 70.5897 196.638 75.0853 202.183 75.0853H280.642C286.188 75.0853 290.684 70.5897 290.684 65.0441V64.1327C290.684 58.5871 286.188 54.0915 280.642 54.0915Z" fill="#EBEBEB"/>
<path d="M207.74 64.6444V66.9228H206.589V64.8283C206.589 64.1807 206.293 63.8849 205.789 63.8849C205.285 63.8849 204.838 64.2287 204.838 64.9562V66.9228H203.687V61.4465H204.846V63.3732C205.014 63.2132 205.212 63.0884 205.429 63.006C205.646 62.9236 205.877 62.8854 206.109 62.8936C206.335 62.888 206.56 62.9305 206.768 63.0181C206.977 63.1058 207.164 63.2367 207.318 63.4022C207.472 63.5676 207.59 63.7639 207.662 63.978C207.735 64.1922 207.761 64.4193 207.74 64.6444Z" fill="#263238"/>
<path d="M211.345 66.715C211.068 66.895 210.741 66.9844 210.41 66.9708C210.213 66.9985 210.012 66.981 209.823 66.9198C209.634 66.8585 209.461 66.755 209.318 66.6172C209.175 66.4793 209.065 66.3107 208.996 66.124C208.928 65.9374 208.903 65.7376 208.923 65.5398V63.9409H208.307V63.0455H208.923V62.0541H210.074V63.0455H211.066V63.9329H210.074V65.5318C210.064 65.6006 210.07 65.6707 210.091 65.737C210.112 65.8033 210.148 65.864 210.195 65.9147C210.243 65.9653 210.301 66.0046 210.366 66.0297C210.431 66.0547 210.501 66.0649 210.57 66.0594C210.738 66.0624 210.903 66.012 211.042 65.9155L211.345 66.715Z" fill="#263238"/>
<path d="M214.439 66.715C214.161 66.895 213.835 66.9844 213.504 66.9708C213.307 66.9985 213.106 66.981 212.917 66.9198C212.728 66.8585 212.555 66.755 212.412 66.6172C212.269 66.4793 212.159 66.3107 212.09 66.124C212.022 65.9374 211.997 65.7376 212.017 65.5398V63.9409H211.401V63.0455H212.041V62.0541H213.192V63.0455H214.183V63.9329H213.192V65.5318C213.182 65.6006 213.188 65.6707 213.209 65.737C213.23 65.8033 213.266 65.864 213.313 65.9147C213.361 65.9653 213.419 66.0046 213.484 66.0297C213.549 66.0547 213.618 66.0649 213.688 66.0594C213.856 66.0624 214.021 66.012 214.159 65.9155L214.439 66.715Z" fill="#263238"/>
<path d="M219.46 64.9242C219.475 65.1916 219.435 65.4593 219.342 65.7104C219.249 65.9615 219.104 66.1905 218.918 66.3829C218.732 66.5753 218.507 66.7269 218.259 66.8281C218.011 66.9293 217.745 66.9779 217.477 66.9708C217.255 66.9786 217.033 66.94 216.827 66.8574C216.62 66.7748 216.433 66.6501 216.278 66.4911V68.3459H215.127V62.9335H216.23V63.3892C216.385 63.2141 216.578 63.0764 216.794 62.9864C217.01 62.8965 217.244 62.8565 217.477 62.8696C217.746 62.8624 218.013 62.9112 218.261 63.0129C218.51 63.1145 218.735 63.2669 218.921 63.4601C219.108 63.6534 219.252 63.8834 219.345 64.1354C219.437 64.3875 219.477 64.6561 219.46 64.9242ZM218.285 64.9242C218.269 64.7272 218.196 64.539 218.075 64.3827C217.954 64.2265 217.791 64.1089 217.604 64.0444C217.417 63.9799 217.215 63.9713 217.024 64.0197C216.832 64.0681 216.659 64.1714 216.525 64.3168C216.391 64.4623 216.303 64.6436 216.271 64.8386C216.238 65.0335 216.264 65.2337 216.344 65.4144C216.424 65.5952 216.554 65.7487 216.72 65.8562C216.886 65.9636 217.08 66.0204 217.277 66.0194C217.418 66.0212 217.557 65.9934 217.686 65.9378C217.815 65.8822 217.93 65.8 218.025 65.6967C218.12 65.5933 218.193 65.4711 218.237 65.338C218.282 65.2049 218.298 65.0639 218.285 64.9242Z" fill="#263238"/>
<path d="M219.844 66.5391L220.227 65.7396C220.644 65.9931 221.122 66.1285 221.61 66.1314C222.138 66.1314 222.338 65.9875 222.338 65.7636C222.338 65.1161 219.94 65.7636 219.94 64.1647C219.94 63.4132 220.619 62.8776 221.778 62.8776C222.308 62.868 222.833 62.9888 223.305 63.2293L222.922 64.0288C222.571 63.8363 222.178 63.7372 221.778 63.741C221.259 63.741 221.035 63.9009 221.035 64.1087C221.035 64.7883 223.433 64.1087 223.433 65.7077C223.433 66.4432 222.746 66.9708 221.554 66.9708C220.956 66.982 220.365 66.8329 219.844 66.5391Z" fill="#263238"/>
<path d="M223.873 63.5891C223.892 63.4124 223.975 63.2488 224.107 63.1299C224.239 63.0111 224.411 62.9453 224.588 62.9453C224.766 62.9453 224.938 63.0111 225.07 63.1299C225.202 63.2488 225.285 63.4124 225.304 63.5891C225.315 63.6894 225.304 63.7908 225.273 63.8868C225.242 63.9827 225.191 64.0711 225.123 64.1461C225.056 64.2211 224.973 64.281 224.881 64.3221C224.789 64.3631 224.689 64.3843 224.588 64.3843C224.488 64.3843 224.388 64.3631 224.296 64.3221C224.204 64.281 224.121 64.2211 224.054 64.1461C223.986 64.0711 223.935 63.9827 223.904 63.8868C223.873 63.7908 223.862 63.6894 223.873 63.5891ZM223.873 66.2433C223.892 66.0666 223.975 65.903 224.107 65.7841C224.239 65.6653 224.411 65.5995 224.588 65.5995C224.766 65.5995 224.938 65.6653 225.07 65.7841C225.202 65.903 225.285 66.0666 225.304 66.2433C225.315 66.3436 225.304 66.445 225.273 66.541C225.242 66.6369 225.191 66.7253 225.123 66.8003C225.056 66.8753 224.973 66.9352 224.881 66.9763C224.789 67.0173 224.689 67.0385 224.588 67.0385C224.488 67.0385 224.388 67.0173 224.296 66.9763C224.204 66.9352 224.121 66.8753 224.054 66.8003C223.986 66.7253 223.935 66.6369 223.904 66.541C223.873 66.445 223.862 66.3436 223.873 66.2433Z" fill="#263238"/>
<path d="M228.142 60.687H229.165L226.727 67.6503H225.704L228.142 60.687Z" fill="#263238"/>
<path d="M230.5 60.687H231.524L229.085 67.6503H228.03L230.5 60.687Z" fill="#263238"/>
<path d="M237.895 62.9335L236.456 66.9308H235.345L234.426 64.4365L233.498 66.9068H232.387L230.956 62.9095H232.043L232.979 65.5957L233.954 62.9095H234.929L235.881 65.5957L236.848 62.9095L237.895 62.9335Z" fill="#263238"/>
<path d="M244.731 62.9335L243.284 66.9308H242.18L241.285 64.4605L240.358 66.9308H239.222L237.783 62.9335H238.871L239.814 65.6197L240.821 62.9335H241.797L242.74 65.6197L243.707 62.9335H244.731Z" fill="#263238"/>
<path d="M251.558 62.9335L250.119 66.9308H249.008L248.113 64.4605L247.217 66.9068H246.106L244.667 62.9095H245.754L246.698 65.5957L247.673 62.9095H248.648L249.592 65.5957L250.559 62.9095L251.558 62.9335Z" fill="#263238"/>
<path d="M251.582 66.2433C251.601 66.0666 251.684 65.903 251.816 65.7841C251.948 65.6653 252.12 65.5995 252.298 65.5995C252.475 65.5995 252.647 65.6653 252.779 65.7841C252.911 65.903 252.994 66.0666 253.013 66.2433C253.024 66.3436 253.013 66.445 252.982 66.541C252.951 66.6369 252.9 66.7253 252.833 66.8003C252.765 66.8753 252.683 66.9352 252.59 66.9763C252.498 67.0173 252.399 67.0385 252.298 67.0385C252.197 67.0385 252.097 67.0173 252.005 66.9763C251.913 66.9352 251.83 66.8753 251.763 66.8003C251.695 66.7253 251.644 66.6369 251.613 66.541C251.582 66.445 251.572 66.3436 251.582 66.2433Z" fill="#263238"/>
<path d="M253.517 66.2433C253.536 66.0666 253.619 65.903 253.751 65.7841C253.883 65.6653 254.055 65.5995 254.232 65.5995C254.41 65.5995 254.581 65.6653 254.714 65.7841C254.846 65.903 254.929 66.0666 254.948 66.2433C254.958 66.3436 254.948 66.445 254.917 66.541C254.886 66.6369 254.835 66.7253 254.767 66.8003C254.7 66.8753 254.617 66.9352 254.525 66.9763C254.433 67.0173 254.333 67.0385 254.232 67.0385C254.131 67.0385 254.032 67.0173 253.94 66.9763C253.847 66.9352 253.765 66.8753 253.697 66.8003C253.63 66.7253 253.579 66.6369 253.548 66.541C253.517 66.445 253.506 66.3436 253.517 66.2433Z" fill="#263238"/>
<path d="M255.452 66.2433C255.452 66.0525 255.527 65.8694 255.662 65.7345C255.797 65.5996 255.98 65.5238 256.171 65.5238C256.362 65.5238 256.545 65.5996 256.68 65.7345C256.815 65.8694 256.891 66.0525 256.891 66.2433C256.891 66.4341 256.815 66.6171 256.68 66.7521C256.545 66.887 256.362 66.9628 256.171 66.9628C255.98 66.9628 255.797 66.887 255.662 66.7521C255.527 66.6171 255.452 66.4341 255.452 66.2433Z" fill="#263238"/>
<path d="M277.509 35.2322C277.509 35.3521 265.005 35.4401 249.584 35.4401C234.162 35.4401 221.634 35.3521 221.634 35.2322C221.634 35.1123 234.162 35.0643 249.616 35.0643C265.069 35.0643 277.509 35.1203 277.509 35.2322Z" fill="#263238"/>
<path d="M299.462 242.428C299.462 242.548 276.581 242.636 248.368 242.636C220.155 242.636 197.267 242.548 197.267 242.428C197.267 242.308 220.139 242.221 248.368 242.221C276.597 242.221 299.462 242.316 299.462 242.428Z" fill="#E0E0E0"/>
<path d="M299.462 233.666C299.462 233.778 276.581 233.874 248.368 233.874C220.155 233.874 197.267 233.778 197.267 233.666C197.267 233.554 220.139 233.458 248.368 233.458C276.597 233.458 299.462 233.546 299.462 233.666Z" fill="#E0E0E0"/>
<path d="M299.462 224.896C299.462 225.008 276.581 225.104 248.368 225.104C220.155 225.104 197.267 225.008 197.267 224.896C197.267 224.784 220.139 224.688 248.368 224.688C276.597 224.688 299.462 224.776 299.462 224.896Z" fill="#E0E0E0"/>
<path d="M299.462 216.126C299.462 216.238 276.581 216.334 248.368 216.334C220.155 216.334 197.267 216.238 197.267 216.126C197.267 216.014 220.139 215.918 248.368 215.918C276.597 215.918 299.462 216.014 299.462 216.126Z" fill="#E0E0E0"/>
<path d="M299.462 207.356C299.462 207.476 276.581 207.564 248.368 207.564C220.155 207.564 197.267 207.476 197.267 207.356C197.267 207.236 220.139 207.148 248.368 207.148C276.597 207.148 299.462 207.244 299.462 207.356Z" fill="#E0E0E0"/>
<path d="M299.462 198.586C299.462 198.706 276.581 198.794 248.368 198.794C220.155 198.794 197.267 198.706 197.267 198.586C197.267 198.466 220.139 198.378 248.368 198.378C276.597 198.378 299.462 198.474 299.462 198.586Z" fill="#E0E0E0"/>
<path d="M299.462 189.824C299.462 189.936 276.581 190.032 248.368 190.032C220.155 190.032 197.267 189.936 197.267 189.824C197.267 189.712 220.139 189.616 248.368 189.616C276.597 189.616 299.462 189.704 299.462 189.824Z" fill="#E0E0E0"/>
<path d="M299.462 181.054C299.462 181.165 276.581 181.261 248.368 181.261C220.155 181.261 197.267 181.165 197.267 181.054C197.267 180.942 220.139 180.846 248.368 180.846C276.597 180.846 299.462 180.934 299.462 181.054Z" fill="#E0E0E0"/>
<path d="M299.462 172.284C299.462 172.396 276.581 172.492 248.368 172.492C220.155 172.492 197.267 172.396 197.267 172.284C197.267 172.172 220.139 172.076 248.368 172.076C276.597 172.076 299.462 172.172 299.462 172.284Z" fill="#E0E0E0"/>
<path d="M299.462 163.514C299.462 163.634 276.581 163.721 248.368 163.721C220.155 163.721 197.267 163.634 197.267 163.514C197.267 163.394 220.139 163.306 248.368 163.306C276.597 163.306 299.462 163.402 299.462 163.514Z" fill="#E0E0E0"/>
<path d="M299.462 154.744C299.462 154.863 276.581 154.951 248.368 154.951C220.155 154.951 197.267 154.863 197.267 154.744C197.267 154.624 220.139 154.536 248.368 154.536C276.597 154.536 299.462 154.632 299.462 154.744Z" fill="#E0E0E0"/>
<path d="M299.462 145.981C299.462 146.093 276.581 146.189 248.368 146.189C220.155 146.189 197.267 146.093 197.267 145.981C197.267 145.87 220.139 145.774 248.368 145.774C276.597 145.774 299.462 145.862 299.462 145.981Z" fill="#E0E0E0"/>
<path d="M299.462 137.211C299.462 137.323 276.581 137.419 248.368 137.419C220.155 137.419 197.267 137.323 197.267 137.211C197.267 137.099 220.139 137.004 248.368 137.004C276.597 137.004 299.462 137.091 299.462 137.211Z" fill="#E0E0E0"/>
<path d="M299.462 128.441C299.462 128.553 276.581 128.649 248.368 128.649C220.155 128.649 197.267 128.553 197.267 128.441C197.267 128.329 220.139 128.233 248.368 128.233C276.597 128.233 299.462 128.329 299.462 128.441Z" fill="#E0E0E0"/>
<path d="M299.462 119.671C299.462 119.791 276.581 119.879 248.368 119.879C220.155 119.879 197.267 119.791 197.267 119.671C197.267 119.551 220.139 119.463 248.368 119.463C276.597 119.463 299.462 119.559 299.462 119.671Z" fill="#E0E0E0"/>
<path d="M299.462 110.901C299.462 111.021 276.581 111.109 248.368 111.109C220.155 111.109 197.267 111.021 197.267 110.901C197.267 110.781 220.139 110.693 248.368 110.693C276.597 110.693 299.462 110.789 299.462 110.901Z" fill="#E0E0E0"/>
<path d="M299.462 102.139C299.462 102.251 276.581 102.347 248.368 102.347C220.155 102.347 197.267 102.251 197.267 102.139C197.267 102.027 220.139 101.931 248.368 101.931C276.597 101.931 299.462 102.019 299.462 102.139Z" fill="#E0E0E0"/>
<path d="M299.462 93.369C299.462 93.4809 276.581 93.5768 248.368 93.5768C220.155 93.5768 197.267 93.4809 197.267 93.369C197.267 93.2571 220.139 93.1611 248.368 93.1611C276.597 93.1611 299.462 93.2491 299.462 93.369Z" fill="#E0E0E0"/>
<path d="M299.462 84.6309C299.462 84.7428 276.581 84.8387 248.368 84.8387C220.155 84.8387 197.267 84.7428 197.267 84.6309C197.267 84.519 220.139 84.423 248.368 84.423C276.597 84.423 299.462 84.487 299.462 84.6309Z" fill="#E0E0E0"/>
<path d="M299.462 251.198C299.462 251.318 276.581 251.406 248.368 251.406C220.155 251.406 197.267 251.318 197.267 251.198C197.267 251.079 220.139 250.991 248.368 250.991C276.597 250.991 299.462 251.087 299.462 251.198Z" fill="#E0E0E0"/>
<path d="M299.462 259.969C299.462 260.08 276.581 260.176 248.368 260.176C220.155 260.176 197.267 260.08 197.267 259.969C197.267 259.857 220.139 259.761 248.368 259.761C276.597 259.761 299.462 259.857 299.462 259.969Z" fill="#E0E0E0"/>
<path d="M299.462 268.739C299.462 268.851 276.581 268.946 248.368 268.946C220.155 268.946 197.267 268.851 197.267 268.739C197.267 268.627 220.139 268.531 248.368 268.531C276.597 268.531 299.462 268.619 299.462 268.739Z" fill="#E0E0E0"/>
<path d="M318.297 81.4011H200.824C197.411 81.4011 194.645 84.1679 194.645 87.5809V220.059C194.645 223.473 197.411 226.239 200.824 226.239H318.297C321.71 226.239 324.477 223.473 324.477 220.059V87.5809C324.477 84.1679 321.71 81.4011 318.297 81.4011Z" fill="white"/>
<path d="M318.289 226.239H318.641C318.986 226.217 319.328 226.166 319.664 226.087C320.994 225.773 322.183 225.029 323.046 223.969C323.67 223.188 324.101 222.27 324.301 221.291C324.43 220.093 324.467 218.888 324.413 217.685C324.413 215.055 324.413 212.033 324.413 208.627C324.413 194.988 324.373 175.266 324.341 150.898C324.341 138.714 324.341 125.363 324.341 111.037C324.341 103.869 324.341 96.4656 324.341 88.828C324.396 87.8868 324.321 86.9425 324.117 86.0219C323.873 85.126 323.415 84.3029 322.782 83.6236C322.151 82.913 321.359 82.3646 320.472 82.0246C319.567 81.7045 318.607 81.5712 317.65 81.6329H305.674H200.84C199.714 81.6355 198.61 81.9546 197.656 82.5539C196.702 83.1533 195.936 84.0087 195.444 85.0226C194.975 86.0482 194.771 87.1755 194.852 88.3004V105.417C194.852 114.477 194.852 123.394 194.852 132.167C194.852 149.699 194.852 166.616 194.852 182.733C194.852 190.791 194.852 198.639 194.852 206.277C194.852 210.098 194.852 213.858 194.852 217.557C194.852 218.485 194.852 219.412 194.852 220.315C194.908 221.644 195.406 222.915 196.266 223.929C197.126 224.943 198.3 225.64 199.601 225.912C200.471 226.049 201.352 226.095 202.232 226.047H220.275H239.406L297.127 226.111L312.821 226.151H316.906C317.825 226.151 318.289 226.151 318.289 226.151H316.906H312.821L297.127 226.191L239.406 226.263H202.216C201.313 226.305 200.408 226.26 199.513 226.127C198.131 225.835 196.886 225.091 195.974 224.013C195.062 222.934 194.535 221.583 194.477 220.171C194.477 219.244 194.477 218.333 194.477 217.397C194.477 213.698 194.477 209.938 194.477 206.117C194.477 198.485 194.477 190.637 194.477 182.573C194.477 166.456 194.477 149.539 194.477 132.007V88.2764C194.395 87.0905 194.612 85.903 195.108 84.8228C195.632 83.7433 196.447 82.8316 197.461 82.1904C198.476 81.5491 199.649 81.2038 200.848 81.1932H305.682H317.57C318.572 81.1303 319.576 81.2745 320.52 81.6169C321.463 81.9667 322.306 82.5433 322.974 83.2958C323.648 84.0302 324.136 84.9158 324.397 85.878C324.608 86.83 324.686 87.8067 324.629 88.7801C324.629 96.4176 324.629 103.821 324.629 110.989C324.629 125.315 324.629 138.666 324.629 150.85C324.629 175.218 324.581 194.94 324.565 208.579C324.565 211.985 324.565 215.004 324.565 217.637C324.611 218.849 324.566 220.062 324.429 221.267C324.217 222.259 323.773 223.188 323.134 223.977C322.257 225.044 321.046 225.785 319.696 226.079C319.357 226.153 319.012 226.196 318.665 226.207L318.289 226.239Z" fill="#263238"/>
<path d="M324.621 85.8541C324.348 84.8581 323.844 83.9407 323.149 83.1766C322.454 82.4125 321.589 81.8233 320.624 81.457C319.655 81.1007 318.623 80.9509 317.594 81.0173H200.872C199.629 81.0134 198.411 81.3621 197.358 82.0229C196.305 82.6838 195.461 83.6297 194.924 84.7508C194.403 85.8576 194.177 87.0805 194.269 88.3004V217.573V218.549C194.269 219.148 194.269 219.748 194.269 220.355C194.316 221.328 194.572 222.28 195.02 223.145C195.472 223.994 196.104 224.734 196.872 225.313C197.64 225.891 198.525 226.295 199.465 226.495C199.992 226.6 200.528 226.648 201.064 226.639H201.488C201.722 226.639 201.954 226.639 202.183 226.639L297.095 226.543L312.789 226.503H316.874H318.265H318.609C318.972 226.491 319.333 226.446 319.688 226.367C321.082 226.067 322.332 225.3 323.23 224.193C323.892 223.379 324.352 222.42 324.573 221.395C324.694 220.572 324.736 219.739 324.701 218.908C324.701 218.524 324.701 218.109 324.701 217.733L324.781 150.946V111.085V88.3963C324.85 87.5456 324.796 86.6894 324.621 85.8541ZM194.645 149.563V88.2764C194.56 87.1178 194.772 85.9567 195.26 84.9027C195.761 83.8598 196.544 82.9781 197.52 82.3577C198.497 81.7374 199.628 81.4032 200.784 81.3931C199.63 81.4039 198.501 81.7376 197.526 82.3565C196.552 82.9753 195.769 83.8545 195.268 84.8947C194.776 85.9446 194.564 87.1042 194.653 88.2604L194.645 149.563ZM324.109 221.227C323.913 222.174 323.497 223.061 322.894 223.817C322.06 224.842 320.91 225.561 319.624 225.864C319.296 225.942 318.962 225.993 318.625 226.015H318.289C318.201 226.015 317.738 226.015 316.906 226.015L297.127 225.951L239.406 225.888H202.223H201.504C200.875 225.918 200.244 225.875 199.625 225.76C198.364 225.495 197.227 224.816 196.395 223.831C195.564 222.846 195.086 221.611 195.036 220.323C195.036 219.74 195.036 219.148 195.036 218.556V217.565V88.2924C194.946 87.1945 195.144 86.092 195.612 85.0946C196.079 84.1205 196.809 83.2969 197.721 82.7174C198.632 82.138 199.688 81.8259 200.768 81.8168H200.848H317.618C318.548 81.7519 319.482 81.8826 320.36 82.2005C321.21 82.5261 321.971 83.0465 322.584 83.7199C323.196 84.3933 323.642 85.2009 323.885 86.0779C324.072 86.8439 324.144 87.6332 324.101 88.4203V148.884L324.173 208.627V217.677C324.173 218.085 324.173 218.477 324.173 218.868C324.225 219.655 324.204 220.444 324.109 221.227Z" fill="#263238"/>
<path d="M211.793 183.34H212.928V187.338H215.383V188.265H211.793V183.34Z" fill="#263238"/>
<path d="M215.814 183.34C215.816 183.255 215.836 183.171 215.871 183.093C215.907 183.015 215.958 182.946 216.022 182.889C216.086 182.832 216.161 182.789 216.242 182.762C216.323 182.735 216.409 182.725 216.494 182.733C216.578 182.723 216.662 182.73 216.743 182.755C216.823 182.779 216.898 182.82 216.962 182.875C217.026 182.93 217.078 182.997 217.114 183.073C217.15 183.149 217.171 183.232 217.173 183.316C217.173 183.497 217.102 183.669 216.974 183.797C216.847 183.924 216.674 183.996 216.494 183.996C216.314 183.996 216.141 183.924 216.013 183.797C215.886 183.669 215.814 183.497 215.814 183.316V183.34ZM215.95 184.475H217.038V188.241H215.95V184.475Z" fill="#263238"/>
<path d="M221.906 186.082V188.241H220.835V186.25C220.835 185.643 220.555 185.363 220.035 185.363C219.516 185.363 219.132 185.683 219.132 186.378V188.241H218.045V184.475H219.084V184.915C219.246 184.75 219.441 184.621 219.655 184.536C219.87 184.451 220.1 184.411 220.331 184.42C220.55 184.402 220.77 184.434 220.975 184.513C221.18 184.591 221.365 184.715 221.516 184.874C221.667 185.034 221.781 185.225 221.848 185.434C221.916 185.643 221.936 185.865 221.906 186.082Z" fill="#263238"/>
<path d="M224.52 186.762L223.993 187.282V188.241H222.897V183.044H224.033V185.986L225.632 184.475H226.927L225.328 186.074L227.039 188.249H225.712L224.52 186.762Z" fill="#263238"/>
<path d="M209.419 98.9492L209.786 98.1498C210.243 98.4697 210.787 98.6427 211.345 98.6454C211.985 98.6454 212.249 98.4296 212.249 98.1418C212.249 97.2544 209.515 97.862 209.515 96.1111C209.515 95.3117 210.154 94.6401 211.497 94.6401C212.072 94.6292 212.639 94.7757 213.136 95.0638L212.8 95.8633C212.402 95.6308 211.95 95.5042 211.489 95.4955C210.842 95.4955 210.594 95.7354 210.594 96.0312C210.594 96.9026 213.336 96.303 213.336 98.0378C213.336 98.8373 212.68 99.4928 211.337 99.4928C210.657 99.5132 209.987 99.3234 209.419 98.9492Z" fill="#263238"/>
<path d="M217.709 97.3423V99.4129H216.662V97.5022C216.662 96.9186 216.39 96.6468 215.926 96.6468C215.463 96.6468 215.055 96.9586 215.055 97.6221V99.4129H214.008V94.4163H215.055V96.1671C215.209 96.0227 215.39 95.9103 215.587 95.8362C215.785 95.7621 215.995 95.7278 216.206 95.7354C216.416 95.7217 216.627 95.7548 216.822 95.8323C217.018 95.9098 217.194 96.0297 217.338 96.1834C217.481 96.3371 217.589 96.5207 217.653 96.7211C217.718 96.9215 217.737 97.1337 217.709 97.3423Z" fill="#263238"/>
<path d="M221.866 97.3505V99.4132H220.883V98.9654C220.76 99.1399 220.594 99.2785 220.4 99.367C220.206 99.4556 219.992 99.4908 219.78 99.4691C218.924 99.4691 218.421 98.9974 218.421 98.3739C218.421 97.7503 218.876 97.2866 219.979 97.2866H220.779C220.779 96.8389 220.515 96.5751 219.979 96.5751C219.603 96.5722 219.236 96.6898 218.932 96.9108L218.556 96.1753C219.033 95.872 219.59 95.7188 220.155 95.7356C221.227 95.7356 221.866 96.2473 221.866 97.3505ZM220.835 98.2699V97.9022H220.115C219.628 97.9022 219.468 98.0781 219.468 98.3259C219.468 98.5737 219.692 98.7656 220.059 98.7656C220.224 98.7729 220.387 98.7293 220.526 98.6405C220.664 98.5518 220.772 98.4224 220.835 98.2699Z" fill="#263238"/>
<path d="M225.064 95.7354V96.7107H224.824C224.691 96.6986 224.557 96.7167 224.431 96.7638C224.306 96.8108 224.193 96.8856 224.101 96.9825C224.009 97.0793 223.94 97.1958 223.899 97.3232C223.858 97.4506 223.846 97.5856 223.865 97.718V99.4289H222.81V95.8233H223.817V96.303C223.963 96.1138 224.153 95.9631 224.37 95.8642C224.587 95.7652 224.826 95.721 225.064 95.7354Z" fill="#263238"/>
<path d="M229.181 97.9019H226.431C226.489 98.1272 226.626 98.3243 226.816 98.4577C227.007 98.5912 227.239 98.652 227.47 98.6294C227.638 98.6342 227.805 98.6056 227.961 98.5452C228.118 98.4848 228.261 98.3939 228.382 98.2777L228.933 98.8853C228.65 99.1573 228.296 99.3448 227.912 99.4266C227.527 99.5084 227.128 99.4813 226.758 99.3484C226.388 99.2154 226.063 98.9819 225.819 98.6741C225.575 98.3663 225.421 97.9964 225.376 97.6061C225.372 97.354 225.42 97.1039 225.517 96.871C225.614 96.6382 225.757 96.4277 225.939 96.2524C226.12 96.0772 226.335 95.9409 226.571 95.8519C226.807 95.763 227.059 95.7234 227.31 95.7354C227.561 95.7228 227.81 95.7627 228.044 95.8527C228.278 95.9426 228.49 96.0806 228.667 96.2576C228.844 96.4347 228.982 96.6469 229.072 96.8805C229.162 97.1142 229.202 97.3641 229.189 97.6141C229.197 97.6941 229.189 97.814 229.181 97.9019ZM226.423 97.2863H228.214C228.174 97.0778 228.063 96.8897 227.9 96.7543C227.736 96.619 227.531 96.5449 227.318 96.5449C227.106 96.5449 226.901 96.619 226.737 96.7543C226.574 96.8897 226.463 97.0778 226.423 97.2863Z" fill="#263238"/>
<path d="M304.514 193.19H213.76C208.214 193.19 203.719 197.685 203.719 203.231V204.142C203.719 209.688 208.214 214.183 213.76 214.183H304.514C310.06 214.183 314.556 209.688 314.556 204.142V203.231C314.556 197.685 310.06 193.19 304.514 193.19Z" fill="#EBEBEB"/>
<path d="M316.834 100.3C324.676 100.3 331.033 93.9435 331.033 86.1019C331.033 78.2603 324.676 71.9035 316.834 71.9035C308.993 71.9035 302.636 78.2603 302.636 86.1019C302.636 93.9435 308.993 100.3 316.834 100.3Z" fill="#FA8E11"/>
<path d="M322.701 82.1404L320.689 80.128L311.672 89.1446L313.685 91.157L322.701 82.1404Z" fill="white"/>
<path d="M313.68 80.1227L311.668 82.1351L320.684 91.1517L322.697 89.1393L313.68 80.1227Z" fill="white"/>
<path d="M302.676 201.944H298.407C297.894 201.944 297.479 202.359 297.479 202.871V207.14C297.479 207.652 297.894 208.068 298.407 208.068H302.676C303.188 208.068 303.603 207.652 303.603 207.14V202.871C303.603 202.359 303.188 201.944 302.676 201.944Z" fill="#263238"/>
<path d="M305.322 199.297H301.053C300.541 199.297 300.125 199.713 300.125 200.225V204.494C300.125 205.006 300.541 205.421 301.053 205.421H305.322C305.834 205.421 306.249 205.006 306.249 204.494V200.225C306.249 199.713 305.834 199.297 305.322 199.297Z" fill="#EBEBEB"/>
<path d="M305.322 205.829H301.053C300.7 205.827 300.363 205.685 300.114 205.435C299.865 205.185 299.726 204.847 299.726 204.494V200.225C299.728 199.874 299.868 199.537 300.117 199.289C300.365 199.04 300.701 198.9 301.053 198.898H305.322C305.674 198.898 306.011 199.038 306.26 199.286C306.509 199.535 306.649 199.873 306.649 200.225V204.494C306.65 204.669 306.617 204.842 306.55 205.004C306.484 205.166 306.387 205.313 306.263 205.438C306.14 205.562 305.993 205.66 305.832 205.727C305.67 205.794 305.497 205.829 305.322 205.829ZM301.053 199.697C300.914 199.699 300.781 199.756 300.682 199.854C300.583 199.953 300.527 200.086 300.525 200.225V204.494C300.525 204.635 300.58 204.77 300.679 204.87C300.778 204.97 300.912 205.028 301.053 205.03H305.322C305.392 205.03 305.461 205.016 305.526 204.989C305.59 204.962 305.649 204.922 305.698 204.872C305.747 204.822 305.786 204.763 305.812 204.698C305.838 204.633 305.851 204.564 305.85 204.494V200.225C305.85 200.156 305.836 200.087 305.809 200.023C305.783 199.959 305.744 199.901 305.695 199.852C305.646 199.803 305.588 199.764 305.524 199.737C305.46 199.711 305.391 199.697 305.322 199.697H301.053Z" fill="#263238"/>
<path d="M219.316 203.75V206.029H218.165V203.91C218.165 203.271 217.869 202.975 217.365 202.975C216.862 202.975 216.414 203.311 216.414 204.046V206.013H215.239V200.553H216.39V202.471C216.559 202.313 216.757 202.189 216.974 202.108C217.191 202.027 217.422 201.99 217.653 202C217.882 201.989 218.11 202.028 218.322 202.114C218.535 202.2 218.726 202.33 218.884 202.496C219.041 202.662 219.162 202.86 219.236 203.076C219.311 203.293 219.338 203.523 219.316 203.75Z" fill="#263238"/>
<path d="M222.921 205.821C222.642 205.995 222.316 206.082 221.986 206.069C221.79 206.096 221.59 206.079 221.402 206.018C221.213 205.957 221.041 205.855 220.898 205.718C220.755 205.581 220.645 205.413 220.575 205.228C220.506 205.042 220.48 204.843 220.499 204.646V203.007H219.884V202.152H220.499V201.184H221.634V202.152H222.626V203.039H221.634V204.638C221.626 204.706 221.633 204.775 221.654 204.841C221.676 204.906 221.712 204.966 221.759 205.015C221.806 205.065 221.864 205.104 221.928 205.128C221.993 205.153 222.061 205.163 222.13 205.158C222.296 205.159 222.458 205.108 222.594 205.014L222.921 205.821Z" fill="#263238"/>
<path d="M226.047 205.821C225.767 205.995 225.442 206.082 225.112 206.069C224.916 206.096 224.716 206.079 224.528 206.018C224.339 205.957 224.167 205.855 224.024 205.718C223.881 205.581 223.77 205.413 223.701 205.228C223.632 205.042 223.606 204.843 223.625 204.646V203.007H223.009V202.152H223.625V201.184H224.776V202.152H225.768V203.039H224.776V204.638C224.768 204.706 224.774 204.775 224.796 204.841C224.818 204.906 224.853 204.966 224.901 205.015C224.948 205.065 225.006 205.104 225.07 205.128C225.134 205.153 225.203 205.163 225.272 205.158C225.44 205.16 225.605 205.11 225.744 205.014L226.047 205.821Z" fill="#263238"/>
<path d="M231.036 204.022C231.052 204.29 231.011 204.557 230.918 204.809C230.825 205.06 230.681 205.289 230.494 205.481C230.308 205.673 230.083 205.825 229.835 205.926C229.587 206.027 229.321 206.076 229.053 206.069C228.831 206.081 228.608 206.044 228.401 205.961C228.194 205.879 228.007 205.752 227.854 205.589V207.444H226.703V202.032H227.798V202.495C227.954 202.319 228.148 202.181 228.366 202.091C228.583 202.001 228.818 201.961 229.053 201.976C229.321 201.969 229.587 202.017 229.835 202.118C230.083 202.22 230.308 202.371 230.494 202.564C230.681 202.756 230.825 202.985 230.918 203.236C231.011 203.487 231.052 203.755 231.036 204.022ZM229.861 204.022C229.844 203.826 229.77 203.639 229.648 203.483C229.526 203.328 229.362 203.212 229.175 203.149C228.988 203.085 228.787 203.078 228.596 203.127C228.405 203.176 228.232 203.28 228.099 203.426C227.966 203.571 227.879 203.753 227.847 203.947C227.815 204.142 227.841 204.342 227.921 204.522C228.001 204.702 228.132 204.855 228.297 204.963C228.463 205.07 228.656 205.126 228.853 205.126C228.995 205.127 229.134 205.099 229.264 205.043C229.394 204.987 229.51 204.904 229.605 204.8C229.7 204.696 229.772 204.573 229.816 204.439C229.86 204.305 229.875 204.163 229.861 204.022Z" fill="#263238"/>
<path d="M231.42 205.637L231.804 204.838C232.223 205.085 232.7 205.217 233.187 205.221C233.714 205.221 233.914 205.078 233.914 204.862C233.914 204.206 231.516 204.862 231.516 203.263C231.516 202.503 232.195 201.976 233.355 201.976C233.884 201.962 234.409 202.08 234.881 202.319L234.498 203.119C234.15 202.921 233.755 202.819 233.355 202.823C232.835 202.823 232.611 202.983 232.611 203.191C232.611 203.87 235.009 203.191 235.009 204.79C235.009 205.525 234.322 206.053 233.131 206.053C232.534 206.069 231.943 205.925 231.42 205.637Z" fill="#263238"/>
<path d="M235.441 202.687C235.441 202.496 235.517 202.313 235.652 202.178C235.787 202.043 235.97 201.968 236.161 201.968C236.351 201.968 236.534 202.043 236.669 202.178C236.804 202.313 236.88 202.496 236.88 202.687C236.88 202.878 236.804 203.061 236.669 203.196C236.534 203.331 236.351 203.407 236.161 203.407C235.97 203.407 235.787 203.331 235.652 203.196C235.517 203.061 235.441 202.878 235.441 202.687ZM235.441 205.341C235.441 205.151 235.517 204.968 235.652 204.833C235.787 204.698 235.97 204.622 236.161 204.622C236.351 204.622 236.534 204.698 236.669 204.833C236.804 204.968 236.88 205.151 236.88 205.341C236.88 205.532 236.804 205.715 236.669 205.85C236.534 205.985 236.351 206.061 236.161 206.061C235.97 206.061 235.787 205.985 235.652 205.85C235.517 205.715 235.441 205.532 235.441 205.341Z" fill="#263238"/>
<path d="M239.718 199.753H240.742L238.343 206.716H237.32L239.718 199.753Z" fill="#263238"/>
<path d="M242.077 199.753H243.1L240.661 206.716H239.638L242.077 199.753Z" fill="#263238"/>
<path d="M249.472 202.032L248.033 206.029H246.921L246.026 203.559L245.107 206.029H244.019L242.588 202.032H243.676L244.611 204.726L245.586 202.032H246.562L247.513 204.726L248.48 202.032H249.472Z" fill="#263238"/>
<path d="M256.307 202.032L254.86 206.029H253.757L252.861 203.559L251.934 206.029H250.823L249.392 202.032H250.479L251.422 204.726L252.398 202.032H253.373L254.316 204.726L255.284 202.032H256.307Z" fill="#263238"/>
<path d="M263.134 202.032L261.695 206.029H260.584L259.689 203.559L258.769 206.029H257.658L256.219 202.032H257.306L258.25 204.726L259.225 202.032H260.2L261.144 204.726L262.111 202.032H263.134Z" fill="#263238"/>
<path d="M263.158 205.349C263.177 205.173 263.26 205.009 263.393 204.89C263.525 204.771 263.696 204.706 263.874 204.706C264.052 204.706 264.223 204.771 264.355 204.89C264.487 205.009 264.571 205.173 264.589 205.349C264.6 205.45 264.589 205.551 264.558 205.647C264.527 205.743 264.476 205.831 264.409 205.906C264.341 205.981 264.259 206.041 264.167 206.082C264.074 206.123 263.975 206.145 263.874 206.145C263.773 206.145 263.673 206.123 263.581 206.082C263.489 206.041 263.406 205.981 263.339 205.906C263.271 205.831 263.22 205.743 263.189 205.647C263.158 205.551 263.148 205.45 263.158 205.349Z" fill="#263238"/>
<path d="M265.093 205.349C265.112 205.173 265.195 205.009 265.327 204.89C265.459 204.771 265.631 204.706 265.809 204.706C265.986 204.706 266.158 204.771 266.29 204.89C266.422 205.009 266.505 205.173 266.524 205.349C266.535 205.45 266.524 205.551 266.493 205.647C266.462 205.743 266.411 205.831 266.343 205.906C266.276 205.981 266.193 206.041 266.101 206.082C266.009 206.123 265.909 206.145 265.809 206.145C265.708 206.145 265.608 206.123 265.516 206.082C265.424 206.041 265.341 205.981 265.274 205.906C265.206 205.831 265.155 205.743 265.124 205.647C265.093 205.551 265.082 205.45 265.093 205.349Z" fill="#263238"/>
<path d="M267.028 205.349C267.028 205.159 267.104 204.976 267.238 204.841C267.373 204.706 267.556 204.63 267.747 204.63C267.938 204.63 268.121 204.706 268.256 204.841C268.391 204.976 268.467 205.159 268.467 205.349C268.467 205.54 268.391 205.723 268.256 205.858C268.121 205.993 267.938 206.069 267.747 206.069C267.556 206.069 267.373 205.993 267.238 205.858C267.104 205.723 267.028 205.54 267.028 205.349Z" fill="#263238"/>
<path d="M321.567 174.85C321.567 174.97 294.018 175.066 260.008 175.066C225.999 175.066 198.49 174.97 198.49 174.85C198.49 174.73 226.031 174.642 260.008 174.642C293.986 174.642 321.567 174.738 321.567 174.85Z" fill="#E0E0E0"/>
<path d="M257.914 130.76C264.073 130.76 269.066 125.767 269.066 119.607C269.066 113.448 264.073 108.455 257.914 108.455C251.754 108.455 246.761 113.448 246.761 119.607C246.761 125.767 251.754 130.76 257.914 130.76Z" fill="#FA8E11"/>
<path d="M293.698 130.76C299.857 130.76 304.85 125.767 304.85 119.607C304.85 113.448 299.857 108.455 293.698 108.455C287.538 108.455 282.545 113.448 282.545 119.607C282.545 125.767 287.538 130.76 293.698 130.76Z" fill="#FA8E11"/>
<path d="M221.658 130.76C227.818 130.76 232.811 125.767 232.811 119.607C232.811 113.448 227.818 108.455 221.658 108.455C215.499 108.455 210.506 113.448 210.506 119.607C210.506 125.767 215.499 130.76 221.658 130.76Z" fill="#FA8E11"/>
<path d="M258.098 164.081C264.257 164.081 269.25 159.088 269.25 152.929C269.25 146.769 264.257 141.776 258.098 141.776C251.938 141.776 246.945 146.769 246.945 152.929C246.945 159.088 251.938 164.081 258.098 164.081Z" fill="#FA8E11"/>
<path d="M251.822 153.193L254.492 153.992L256.091 157.19L257.69 155.911L260.088 157.813C260.269 157.867 260.463 157.848 260.63 157.762C260.796 157.675 260.923 157.528 260.984 157.35C261.232 156.702 263.214 148.9 263.214 148.9C263.214 148.9 263.486 148.1 262.503 148.38L251.918 152.329C251.839 152.354 251.768 152.398 251.709 152.456C251.651 152.515 251.607 152.586 251.582 152.665C251.553 152.714 251.536 152.769 251.532 152.826C251.529 152.883 251.54 152.94 251.563 152.992C251.587 153.044 251.623 153.089 251.668 153.124C251.713 153.159 251.766 153.183 251.822 153.193Z" fill="white"/>
<path d="M255.068 153.728L256.179 156.35C256.179 156.35 256.363 154.752 256.387 154.752L261.024 150.402L255.068 153.728Z" fill="#FA8E11"/>
<path d="M293.698 163.785C299.857 163.785 304.85 158.792 304.85 152.633C304.85 146.474 299.857 141.481 293.698 141.481C287.538 141.481 282.545 146.474 282.545 152.633C282.545 158.792 287.538 163.785 293.698 163.785Z" fill="#FA8E11"/>
<path d="M221.658 163.785C227.818 163.785 232.811 158.792 232.811 152.633C232.811 146.474 227.818 141.481 221.658 141.481C215.499 141.481 210.506 146.474 210.506 152.633C210.506 158.792 215.499 163.785 221.658 163.785Z" fill="#FA8E11"/>
<path d="M215.918 123.213C216.953 123.878 218.151 124.245 219.381 124.274C220.611 124.303 221.825 123.993 222.89 123.378C223.955 122.763 224.83 121.866 225.42 120.786C226.009 119.707 226.29 118.486 226.231 117.257C226.695 116.928 227.093 116.516 227.406 116.042C226.977 116.23 226.521 116.354 226.055 116.409C226.55 116.117 226.92 115.653 227.095 115.106C226.63 115.381 226.122 115.573 225.592 115.674C225.234 115.303 224.765 115.06 224.256 114.981C223.748 114.902 223.227 114.992 222.774 115.236C222.321 115.481 221.96 115.867 221.747 116.336C221.534 116.805 221.481 117.33 221.594 117.832C220.656 117.785 219.738 117.541 218.901 117.116C218.063 116.69 217.325 116.092 216.734 115.362C216.44 115.883 216.352 116.495 216.487 117.078C216.622 117.661 216.969 118.172 217.461 118.512C217.085 118.501 216.718 118.4 216.39 118.216C216.39 118.764 216.579 119.296 216.924 119.722C217.268 120.148 217.749 120.444 218.285 120.559C217.938 120.656 217.574 120.67 217.221 120.599C217.376 121.061 217.671 121.463 218.065 121.75C218.459 122.036 218.933 122.193 219.42 122.198C218.933 122.591 218.372 122.883 217.771 123.057C217.17 123.231 216.54 123.284 215.918 123.213Z" fill="white"/>
<path d="M256.179 125.555H258.577V119.551H260.248L260.424 117.545H258.577V116.401C258.577 115.93 258.665 115.738 259.129 115.738H260.424V113.659H258.761C256.979 113.659 256.179 114.459 256.179 115.946V117.545H254.932V119.575H256.179V125.555Z" fill="white"/>
<path fill-rule="evenodd" clip-rule="evenodd" d="M300.389 118.84C300.324 117.241 299.646 115.729 298.497 114.615C297.348 113.502 295.815 112.873 294.215 112.859C292.615 112.845 291.07 113.446 289.901 114.538C288.732 115.631 288.028 117.131 287.934 118.728V119.008C287.929 120.135 288.236 121.242 288.821 122.206L287.702 125.523L291.147 124.428C292.069 124.943 293.106 125.218 294.161 125.227C294.977 125.232 295.785 125.075 296.54 124.767C297.295 124.458 297.981 124.004 298.56 123.43C299.14 122.856 299.6 122.174 299.915 121.422C300.23 120.67 300.394 119.863 300.397 119.048C300.402 118.978 300.399 118.909 300.389 118.84ZM294.161 124.196C293.138 124.201 292.136 123.9 291.283 123.333L289.269 123.98L289.916 122.046C289.271 121.161 288.924 120.094 288.925 119C288.925 118.824 288.925 118.656 288.925 118.488C289.052 117.184 289.662 115.975 290.637 115.099C291.612 114.223 292.879 113.745 294.189 113.758C295.499 113.771 296.757 114.275 297.714 115.17C298.671 116.065 299.257 117.286 299.358 118.592C299.366 118.728 299.366 118.864 299.358 119C299.35 120.375 298.799 121.692 297.827 122.665C296.854 123.638 295.537 124.188 294.161 124.196Z" fill="white"/>
<path fill-rule="evenodd" clip-rule="evenodd" d="M297.016 120.247C296.864 120.167 296.112 119.799 295.976 119.751C295.84 119.703 295.728 119.679 295.632 119.831C295.537 119.983 295.233 120.319 295.145 120.423C295.057 120.527 294.969 120.535 294.817 120.423C294.364 120.249 293.947 119.994 293.586 119.671C293.252 119.367 292.966 119.014 292.738 118.624C292.65 118.472 292.738 118.392 292.802 118.32C292.866 118.248 292.954 118.136 293.034 118.048L293.09 117.976L293.186 117.801C293.208 117.758 293.219 117.712 293.219 117.665C293.219 117.617 293.208 117.571 293.186 117.529L292.714 116.409C292.595 116.106 292.467 116.154 292.371 116.154H292.083C292.005 116.156 291.929 116.174 291.859 116.207C291.789 116.24 291.726 116.287 291.675 116.345C291.502 116.506 291.365 116.702 291.272 116.92C291.18 117.138 291.135 117.372 291.139 117.609C291.142 117.785 291.169 117.96 291.219 118.128C291.337 118.507 291.521 118.861 291.763 119.176C292.397 120.182 293.307 120.984 294.385 121.486C295.984 122.086 295.984 121.886 296.224 121.862C296.437 121.821 296.639 121.736 296.816 121.612C296.994 121.488 297.144 121.328 297.255 121.142C297.357 120.917 297.387 120.666 297.343 120.423C297.271 120.359 297.167 120.319 297.016 120.247Z" fill="white"/>
<path d="M221.634 147.98C223.105 147.98 223.281 147.98 223.857 147.98C224.206 147.985 224.551 148.047 224.88 148.164C225.118 148.256 225.334 148.397 225.512 148.58C225.694 148.756 225.834 148.972 225.919 149.211C226.045 149.535 226.11 149.879 226.111 150.227C226.111 150.81 226.111 150.978 226.111 152.449C226.111 153.92 226.111 154.048 226.111 154.672C226.11 155.019 226.045 155.363 225.919 155.687C225.834 155.926 225.694 156.142 225.512 156.319C225.334 156.501 225.118 156.643 224.88 156.734C224.551 156.851 224.206 156.913 223.857 156.918C223.281 156.918 223.105 156.918 221.634 156.918C220.163 156.918 220.035 156.918 219.42 156.918C219.071 156.913 218.725 156.851 218.397 156.734C218.159 156.643 217.943 156.501 217.765 156.319C217.582 156.142 217.443 155.926 217.357 155.687C217.232 155.363 217.167 155.019 217.165 154.672C217.165 154.088 217.165 153.872 217.165 152.449C217.165 151.026 217.165 150.81 217.165 150.227C217.167 149.879 217.232 149.535 217.357 149.211C217.443 148.972 217.582 148.756 217.765 148.58C217.943 148.397 218.159 148.256 218.397 148.164C218.725 148.047 219.071 147.985 219.42 147.98C219.995 147.98 220.171 147.98 221.634 147.98ZM221.634 146.989C220.147 146.989 219.956 146.989 219.372 146.989C218.916 146.997 218.464 147.084 218.037 147.245C217.67 147.383 217.337 147.598 217.061 147.876C216.784 148.153 216.569 148.485 216.43 148.852C216.272 149.28 216.186 149.731 216.174 150.187C216.174 150.77 216.174 150.986 216.174 152.449C216.174 153.912 216.174 154.128 216.174 154.712C216.186 155.168 216.273 155.619 216.43 156.047C216.569 156.413 216.784 156.745 217.061 157.022C217.337 157.3 217.67 157.516 218.037 157.654C218.464 157.814 218.916 157.901 219.372 157.909C219.956 157.909 220.171 157.909 221.634 157.909C223.097 157.909 223.313 157.909 223.905 157.909C224.361 157.901 224.813 157.814 225.24 157.654C225.605 157.517 225.936 157.302 226.207 157.022C226.487 156.746 226.705 156.413 226.847 156.047C227.004 155.619 227.091 155.168 227.103 154.712C227.103 154.128 227.103 153.912 227.103 152.449C227.103 150.986 227.103 150.77 227.103 150.187C227.091 149.731 227.005 149.28 226.847 148.852C226.705 148.485 226.487 148.153 226.207 147.876C225.936 147.597 225.605 147.381 225.24 147.245C224.813 147.084 224.361 146.997 223.905 146.989C223.313 146.989 223.105 146.989 221.634 146.989Z" fill="white"/>
<path d="M221.634 149.659C221.076 149.659 220.531 149.824 220.066 150.135C219.602 150.445 219.241 150.885 219.027 151.401C218.813 151.917 218.758 152.484 218.866 153.032C218.975 153.579 219.244 154.082 219.639 154.477C220.033 154.871 220.536 155.14 221.084 155.249C221.631 155.358 222.199 155.302 222.714 155.088C223.23 154.875 223.671 154.513 223.981 154.049C224.291 153.585 224.456 153.039 224.456 152.481C224.454 151.733 224.156 151.017 223.628 150.488C223.099 149.959 222.382 149.661 221.634 149.659ZM221.634 154.312C221.272 154.312 220.918 154.204 220.617 154.003C220.316 153.802 220.081 153.516 219.943 153.182C219.804 152.847 219.768 152.479 219.839 152.124C219.909 151.769 220.084 151.443 220.34 151.187C220.596 150.931 220.922 150.756 221.277 150.685C221.632 150.615 222 150.651 222.335 150.79C222.669 150.928 222.955 151.163 223.157 151.464C223.358 151.765 223.465 152.119 223.465 152.481C223.463 152.966 223.269 153.43 222.927 153.773C222.584 154.116 222.119 154.31 221.634 154.312Z" fill="white"/>
<path d="M225.256 149.547C225.257 149.679 225.22 149.808 225.148 149.918C225.076 150.028 224.973 150.114 224.852 150.166C224.731 150.217 224.597 150.232 224.468 150.207C224.339 150.182 224.22 150.12 224.126 150.027C224.032 149.935 223.968 149.816 223.942 149.687C223.916 149.559 223.929 149.425 223.979 149.303C224.029 149.181 224.114 149.077 224.223 149.004C224.332 148.931 224.461 148.892 224.592 148.892C224.767 148.891 224.935 148.96 225.059 149.083C225.183 149.206 225.254 149.372 225.256 149.547Z" fill="white"/>
<path d="M299.094 157.054H288.301V148.828H299.094V157.054ZM289.085 156.255H298.303V149.603H289.085V156.255Z" fill="white"/>
<path d="M293.858 153.824L288.445 149.531L288.933 148.915L293.842 152.809L298.447 148.923L298.95 149.523L293.858 153.824Z" fill="white"/>
<path d="M292.396 152.103L288.407 156.12L288.963 156.672L292.952 152.655L292.396 152.103Z" fill="white"/>
<path d="M293.756 152.771L293.152 153.264L296.633 157.518L297.236 157.024L293.756 152.771Z" fill="white"/>
<path d="M204.374 37.7745C204.191 37.7753 204.013 37.7132 203.87 37.5986L199.146 33.7212C199.055 33.6477 198.981 33.5552 198.93 33.4502C198.879 33.3453 198.852 33.2304 198.85 33.1137C198.849 32.9968 198.873 32.8812 198.921 32.7748C198.97 32.6685 199.041 32.574 199.13 32.4981L203.854 28.4288C203.934 28.3606 204.027 28.3087 204.126 28.2762C204.226 28.2437 204.332 28.2312 204.436 28.2393C204.541 28.2475 204.643 28.2762 204.737 28.3238C204.83 28.3714 204.913 28.437 204.982 28.5168C205.05 28.5966 205.102 28.689 205.134 28.7888C205.167 28.8887 205.179 28.9939 205.171 29.0986C205.163 29.2033 205.134 29.3053 205.087 29.3989C205.039 29.4925 204.973 29.5758 204.894 29.644L200.896 33.0897L204.894 36.3595C204.975 36.4266 205.042 36.509 205.091 36.602C205.14 36.695 205.17 36.7968 205.18 36.9015C205.189 37.0062 205.178 37.1118 205.147 37.2122C205.116 37.3127 205.065 37.4059 204.998 37.4867C204.922 37.578 204.826 37.6512 204.718 37.701C204.61 37.7508 204.493 37.7759 204.374 37.7745Z" fill="#263238"/>
<path d="M94.1044 171.572L82.9919 169.078C76.0766 173.335 67.819 174.852 59.8421 173.33C51.8652 171.808 44.746 167.358 39.8837 160.854C35.0214 154.35 32.7677 146.262 33.5655 138.18C34.3633 130.099 38.155 122.608 44.1952 117.18C50.2355 111.752 58.0875 108.78 66.2079 108.847C74.3284 108.915 82.13 112.017 88.0794 117.544C94.0288 123.072 97.6957 130.624 98.3594 138.718C99.0231 146.811 96.6356 154.86 91.6661 161.283L94.1044 171.572Z" fill="white"/>
<path d="M94.1044 171.572C94.1044 171.572 94.0405 171.34 93.9285 170.893C93.8166 170.445 93.6567 169.773 93.4409 168.918C93.0252 167.175 92.4016 164.617 91.5941 161.291L91.73 161.339C91.7218 161.348 91.7119 161.355 91.7009 161.359C91.6899 161.364 91.6781 161.367 91.6661 161.367C91.6541 161.367 91.6423 161.364 91.6313 161.359C91.6203 161.355 91.6103 161.348 91.6021 161.339C91.5904 161.323 91.5841 161.303 91.5841 161.283C91.5841 161.263 91.5904 161.243 91.6021 161.227C94.9011 156.938 97.075 151.893 97.9258 146.549C98.1917 144.889 98.3254 143.21 98.3256 141.528C98.3036 139.723 98.146 137.922 97.8539 136.14C96.7698 129.704 93.771 123.744 89.2488 119.038C84.7265 114.332 78.8908 111.098 72.503 109.758C67.6125 108.792 62.5666 108.948 57.745 110.214C52.6606 111.511 47.9859 114.071 44.1541 117.657C43.1881 118.532 42.2801 119.469 41.436 120.463C41.0027 120.944 40.5995 121.451 40.2288 121.982C39.853 122.509 39.4293 123.005 39.0936 123.581L38.0942 125.219L37.5986 126.019L37.1829 126.882C36.903 127.45 36.6312 128.026 36.3834 128.593C36.1356 129.161 35.9357 129.776 35.7118 130.36C34.1931 134.542 33.5537 138.992 33.8338 143.432C34.1138 147.872 35.3073 152.206 37.3394 156.164C39.3715 160.122 42.1986 163.618 45.6437 166.433C49.0889 169.247 53.0779 171.321 57.3612 172.524L58.6963 172.867C59.1279 172.997 59.5689 173.094 60.0154 173.155L62.6377 173.563C64.3072 173.705 65.9834 173.753 67.6583 173.707C73.0807 173.446 78.3506 171.827 82.9839 168.998C83.0073 168.99 83.0326 168.99 83.0559 168.998L91.2823 170.901L93.4089 171.404L94.1444 171.58L93.4409 171.436L91.3223 170.973L83.0079 169.166H83.0719C78.4204 172.038 73.1183 173.688 67.6583 173.963C65.9704 174.014 64.2809 173.972 62.5977 173.835L59.9515 173.435C59.4997 173.374 59.0533 173.277 58.6164 173.147L57.2733 172.803C52.9267 171.614 48.8742 169.536 45.372 166.7C41.8699 163.864 38.9943 160.333 36.9272 156.328C34.8601 152.324 33.6464 147.934 33.3629 143.437C33.0794 138.94 33.7322 134.432 35.2801 130.2C35.512 129.601 35.6959 128.985 35.9677 128.409L36.7671 126.667L37.1829 125.795L37.6865 124.996L38.7018 123.333C39.0536 122.781 39.5013 122.277 39.8531 121.734C40.2283 121.197 40.6341 120.682 41.0682 120.191C41.9237 119.185 42.8451 118.237 43.8264 117.353C47.6949 113.721 52.4199 111.127 57.5611 109.814C62.4544 108.535 67.574 108.382 72.535 109.366C77.0166 110.314 81.2511 112.187 84.9678 114.864C88.6846 117.542 91.8019 120.965 94.1204 124.916C96.1304 128.369 97.4855 132.163 98.1177 136.108C98.4047 137.906 98.557 139.724 98.5734 141.544C98.5379 148.727 96.1197 155.695 91.6981 161.355L91.5701 161.227C91.5776 161.219 91.5869 161.212 91.5972 161.207C91.6075 161.203 91.6188 161.2 91.6301 161.2C91.6414 161.2 91.6527 161.203 91.663 161.207C91.6733 161.212 91.6826 161.219 91.6901 161.227C92.4496 164.593 93.0411 167.175 93.4409 168.942C93.6407 169.797 93.7847 170.445 93.8886 170.901C93.9925 171.356 94.1044 171.572 94.1044 171.572Z" fill="#263238"/>
<path d="M74.3737 150.882H57.5851C57.4423 150.882 57.3009 150.854 57.169 150.799C57.0371 150.745 56.9172 150.665 56.8163 150.564C56.7153 150.463 56.6352 150.343 56.5806 150.211C56.5259 150.079 56.4978 149.938 56.4978 149.795V137.004C56.4978 136.715 56.6124 136.439 56.8163 136.235C57.0202 136.031 57.2967 135.916 57.5851 135.916H61.3026C61.5909 135.916 61.8675 136.031 62.0714 136.235C62.2753 136.439 62.3898 136.715 62.3898 137.004C62.3898 137.292 62.2753 137.568 62.0714 137.772C61.8675 137.976 61.5909 138.091 61.3026 138.091H58.6723V148.708H73.2865V138.091H70.5923C70.3039 138.091 70.0274 137.976 69.8235 137.772C69.6196 137.568 69.505 137.292 69.505 137.004C69.505 136.715 69.6196 136.439 69.8235 136.235C70.0274 136.031 70.3039 135.916 70.5923 135.916H74.3737C74.6621 135.916 74.9386 136.031 75.1425 136.235C75.3465 136.439 75.461 136.715 75.461 137.004V149.795C75.461 150.083 75.3465 150.36 75.1425 150.564C74.9386 150.768 74.6621 150.882 74.3737 150.882Z" fill="#FA8E11"/>
<path d="M65.9794 145.654C65.691 145.654 65.4144 145.539 65.2105 145.335C65.0066 145.131 64.8921 144.855 64.8921 144.566V128.889C64.8921 128.601 65.0066 128.324 65.2105 128.12C65.4144 127.916 65.691 127.802 65.9794 127.802C66.2677 127.802 66.5443 127.916 66.7482 128.12C66.9521 128.324 67.0666 128.601 67.0666 128.889V144.59C67.0604 144.875 66.943 145.145 66.7398 145.344C66.5366 145.543 66.2636 145.654 65.9794 145.654Z" fill="#FA8E11"/>
<path d="M69.2332 134.197C69.0663 134.198 68.9015 134.161 68.7517 134.087C68.6018 134.014 68.4711 133.906 68.3698 133.774L65.9314 130.624L63.1893 133.822C63.0992 133.939 62.9862 134.036 62.8572 134.108C62.7282 134.18 62.5858 134.225 62.4388 134.241C62.2918 134.256 62.1433 134.241 62.0023 134.197C61.8613 134.152 61.7308 134.08 61.6187 133.984C61.5066 133.887 61.4153 133.769 61.3504 133.637C61.2856 133.504 61.2484 133.359 61.2413 133.212C61.2341 133.064 61.2571 132.916 61.3089 132.778C61.3607 132.64 61.4401 132.513 61.5424 132.407L65.1559 128.193C65.2608 128.071 65.3918 127.972 65.5393 127.907C65.6869 127.841 65.8473 127.808 66.0089 127.812C66.1704 127.816 66.3291 127.856 66.4734 127.929C66.6176 128.002 66.7438 128.106 66.8428 128.233L70.0886 132.447C70.2155 132.606 70.2946 132.799 70.3167 133.001C70.3388 133.204 70.303 133.409 70.2135 133.592C70.1239 133.775 69.9844 133.929 69.8109 134.036C69.6374 134.144 69.4371 134.199 69.2332 134.197Z" fill="#FA8E11"/>
<path d="M189.656 245.954C179.599 257.674 178.535 270.338 174.522 282.194C167.975 301.556 164.433 321.287 168.126 341.394C176.369 345.447 186.042 341.394 195.164 340.29C211.353 338.364 227.342 346.222 243.62 345.399C246.985 345.223 250.543 344.599 253.037 342.313C257.034 338.691 256.835 332.552 257.09 327.179C258.21 302.484 274.295 281.146 280.794 257.314C281.17 255.939 281.482 254.364 280.698 253.173C279.915 251.982 278.556 251.702 277.269 251.446C263.638 248.736 249.583 249.991 235.697 250.471C222.506 250.927 208.875 250.575 196.683 245.674C195.026 244.981 193.197 244.809 191.439 245.179C190.782 245.26 190.163 245.529 189.656 245.954Z" fill="#455A64"/>
<path d="M204.694 280.802C204.781 280.656 204.88 280.517 204.99 280.387L205.885 279.236C206.277 278.732 206.764 278.132 207.38 277.469C207.996 276.805 208.659 276.022 209.483 275.246L210.754 273.999C211.201 273.567 211.705 273.16 212.201 272.712C213.184 271.809 214.319 270.945 215.503 270.018C220.734 266.092 226.591 263.078 232.827 261.104C234.274 260.68 235.633 260.248 236.944 259.969C237.592 259.825 238.215 259.657 238.823 259.545L240.582 259.233C241.693 259.009 242.716 258.921 243.612 258.809C244.507 258.697 245.282 258.641 245.914 258.609L247.369 258.546C247.539 258.526 247.711 258.526 247.881 258.546C247.715 258.585 247.547 258.612 247.377 258.625L245.93 258.769C245.298 258.817 244.531 258.889 243.644 259.033C242.756 259.177 241.733 259.273 240.63 259.513L238.887 259.849C238.287 259.969 237.672 260.144 237.024 260.296C235.729 260.584 234.378 261.024 232.947 261.456C229.877 262.481 226.887 263.732 224.001 265.197C221.133 266.699 218.38 268.412 215.766 270.322C214.583 271.233 213.448 272.08 212.457 272.968C211.961 273.399 211.457 273.767 211.01 274.223L209.722 275.446C208.883 276.206 208.211 276.973 207.588 277.621C206.964 278.268 206.453 278.844 206.045 279.331L205.086 280.427C204.971 280.567 204.839 280.693 204.694 280.802Z" fill="#263238"/>
<path d="M211.849 218.141C211.849 218.141 189.928 191.982 181.589 191.982C181.589 191.982 176.321 201.264 176.145 206.317C175.969 211.369 193.014 235.097 193.014 235.097L211.849 218.141Z" fill="#FA8E11"/>
<path d="M159.045 191.711L181.589 191.942L188.553 226.671C188.553 226.671 184.811 262.871 182.021 272.112C179.231 281.354 172.867 296.488 172.867 296.488L117.313 284.2L115.65 244.091L108.846 206.437L132.582 197.051L159.045 191.711Z" fill="#FA8E11"/>
<path d="M93.0731 239.726C93.0731 238.327 100.836 209.754 108.854 206.437L115.05 216.03L117.88 242.037L93.0731 239.726Z" fill="#FA8E11"/>
<path d="M188.289 208.835C188.324 209.135 188.324 209.438 188.289 209.738C188.289 210.41 188.233 211.225 188.201 212.193C188.121 214.271 188.057 217.141 188.089 220.307C188.121 223.473 188.273 226.335 188.401 228.406C188.465 229.373 188.513 230.197 188.553 230.868C188.588 231.168 188.588 231.471 188.553 231.772C188.458 231.484 188.399 231.186 188.377 230.884C188.297 230.309 188.193 229.469 188.097 228.43C187.889 226.359 187.697 223.489 187.657 220.307C187.617 217.125 187.737 214.255 187.889 212.177C187.969 211.146 188.041 210.306 188.113 209.722C188.133 209.42 188.192 209.122 188.289 208.835Z" fill="#263238"/>
<path d="M115.394 217.117C115.403 217.461 115.373 217.804 115.306 218.141C115.226 218.772 115.114 219.692 114.994 220.835C114.362 226.773 114.494 232.767 115.386 238.671C115.554 239.806 115.706 240.718 115.818 241.349C115.901 241.673 115.944 242.006 115.946 242.34C115.818 242.031 115.722 241.71 115.658 241.381C115.498 240.758 115.306 239.854 115.098 238.719C114.036 232.801 113.904 226.754 114.707 220.795C114.858 219.66 115.018 218.74 115.146 218.109C115.19 217.77 115.273 217.437 115.394 217.117Z" fill="#263238"/>
<path d="M163.546 281.882C163.252 281.62 162.984 281.331 162.746 281.018L160.707 278.62C158.981 276.557 156.59 273.727 153.896 270.625C151.202 267.523 148.708 264.797 146.893 262.823L144.75 260.472C144.473 260.199 144.224 259.899 144.007 259.577C144.321 259.814 144.61 260.081 144.87 260.376C145.406 260.896 146.173 261.671 147.109 262.631C148.979 264.565 151.506 267.284 154.208 270.37C156.91 273.455 159.268 276.326 160.931 278.428C161.731 279.483 162.426 280.347 162.874 280.954C163.126 281.242 163.351 281.553 163.546 281.882Z" fill="#263238"/>
<path d="M168.254 156.87C168.365 161.794 167.431 166.685 165.515 171.221C163.598 175.757 160.742 179.836 157.134 183.188C155.471 178.392 153.813 173.595 152.161 168.798" fill="#263238"/>
<path d="M130.768 128.217C135.037 125.883 140.193 125.547 144.966 126.499C149.739 127.45 154.176 129.617 158.389 132.055C160.817 133.306 162.986 135.004 164.785 137.059C167.879 140.953 170.949 147.357 171.244 152.329C171.484 156.326 169.949 166.416 168.246 170.069C166.687 173.419 159.388 175.969 155.783 176.801L122.757 138.355C123.352 136.218 124.367 134.221 125.742 132.48C127.118 130.74 128.826 129.29 130.768 128.217Z" fill="#263238"/>
<path d="M125.068 133.398L132.998 131.983C128.665 142.296 127.49 165.888 125.004 176.801C122.086 172.564 115.298 159.652 115.658 154.52C116.018 149.387 115.658 132.527 125.068 133.398Z" fill="#263238"/>
<path d="M120.543 150.187C121.054 142.272 126.323 132.599 134.205 133.398L152.457 138.051C155.261 138.773 157.761 140.371 159.593 142.613C161.425 144.855 162.493 147.623 162.642 150.514C162.642 150.818 162.69 150.45 162.69 150.674L158.613 197.93L144.886 225.176L132.79 196.659C132.79 192.806 132.79 189.736 132.79 189.76C132.79 189.784 122.685 188.057 120.615 174.858C119.615 168.294 119.967 158.981 120.543 150.187Z" fill="#FFBE9D"/>
<path d="M124.508 160.947C124.501 161.384 124.664 161.806 124.962 162.125C125.26 162.445 125.671 162.636 126.107 162.658C126.323 162.679 126.54 162.656 126.747 162.59C126.953 162.524 127.144 162.417 127.308 162.274C127.472 162.132 127.605 161.958 127.7 161.763C127.794 161.568 127.848 161.356 127.858 161.139C127.864 160.703 127.702 160.28 127.403 159.961C127.105 159.642 126.695 159.451 126.259 159.428C126.043 159.408 125.825 159.431 125.619 159.497C125.412 159.563 125.221 159.67 125.057 159.812C124.894 159.954 124.76 160.128 124.666 160.323C124.572 160.518 124.518 160.731 124.508 160.947Z" fill="#263238"/>
<path d="M122.501 155.391C122.717 155.607 123.996 154.664 125.819 154.672C127.642 154.68 129.017 155.591 129.169 155.375C129.321 155.159 129.057 154.871 128.473 154.448C127.684 153.912 126.749 153.632 125.795 153.648C124.847 153.638 123.921 153.935 123.157 154.496C122.605 154.887 122.421 155.287 122.501 155.391Z" fill="#263238"/>
<path d="M141.217 160.947C141.21 161.384 141.373 161.806 141.671 162.125C141.969 162.445 142.379 162.636 142.816 162.658C143.031 162.678 143.248 162.654 143.453 162.587C143.659 162.521 143.849 162.413 144.012 162.271C144.175 162.129 144.307 161.956 144.401 161.761C144.495 161.567 144.548 161.355 144.558 161.139C144.565 160.703 144.402 160.28 144.104 159.961C143.806 159.642 143.396 159.451 142.959 159.428C142.744 159.409 142.527 159.433 142.322 159.499C142.116 159.566 141.926 159.673 141.763 159.815C141.6 159.957 141.468 160.131 141.374 160.325C141.28 160.52 141.227 160.732 141.217 160.947Z" fill="#263238"/>
<path d="M139.818 155.391C140.025 155.607 141.313 154.664 143.135 154.672C144.958 154.68 146.285 155.591 146.485 155.375C146.685 155.159 146.373 154.871 145.79 154.448C144.997 153.913 144.059 153.634 143.103 153.648C142.156 153.639 141.23 153.936 140.465 154.496C139.905 154.887 139.714 155.287 139.818 155.391Z" fill="#263238"/>
<path d="M134.125 169.693C133.166 169.39 132.172 169.207 131.167 169.15C130.704 169.102 130.264 169.006 130.184 168.694C130.146 168.212 130.255 167.73 130.496 167.311L131.879 163.777C133.798 158.741 135.197 154.592 134.989 154.52C134.781 154.448 133.062 158.469 131.143 163.506L129.816 167.063C129.524 167.624 129.437 168.268 129.569 168.886C129.64 169.054 129.749 169.203 129.888 169.321C130.026 169.439 130.191 169.523 130.368 169.566C130.627 169.642 130.897 169.68 131.167 169.677C132.149 169.805 133.143 169.81 134.125 169.693Z" fill="#263238"/>
<path d="M150.322 185.067C150.322 185.067 146.029 194.125 132.822 192.862V189.76C138.977 189.842 145.034 188.218 150.322 185.067Z" fill="#EB996E"/>
<path d="M140.385 148.804C140.569 149.299 142.384 149.075 144.518 149.331C146.653 149.587 148.388 150.179 148.668 149.739C148.796 149.523 148.5 149.059 147.804 148.58C146.876 147.985 145.824 147.612 144.729 147.489C143.634 147.365 142.525 147.495 141.488 147.868C140.705 148.18 140.313 148.588 140.385 148.804Z" fill="#263238"/>
<path d="M123.117 149.819C123.437 150.235 124.716 149.819 126.195 149.819C127.674 149.819 128.985 150.107 129.281 149.675C129.409 149.459 129.209 149.043 128.649 148.652C127.907 148.168 127.032 147.93 126.147 147.972C125.263 147.977 124.403 148.257 123.684 148.772C123.149 149.187 122.973 149.611 123.117 149.819Z" fill="#263238"/>
<path d="M124.1 138.195C124.568 137.227 125.294 136.408 126.199 135.828C127.103 135.248 128.15 134.93 129.225 134.909C131.383 134.908 133.497 135.524 135.317 136.684C143.175 141.225 147.213 152.201 154.975 156.902C156.886 158.053 159.372 156.998 160.995 158.501C162.618 160.004 163.673 162.498 162.778 164.529C163.891 163.148 164.799 161.613 165.472 159.972C165.805 159.148 165.957 158.262 165.92 157.374C165.883 156.487 165.657 155.617 165.256 154.824C164.585 153.664 163.394 152.769 163.074 151.466C162.786 150.323 163.234 149.123 163.186 147.94C163.055 146.739 162.641 145.585 161.979 144.574C158.941 139.194 154.783 134.325 149.363 131.303C145.845 129.271 141.841 128.235 137.779 128.305C133.703 128.402 129.795 129.953 126.762 132.678C125.028 134.277 123.197 135.972 124.1 138.171" fill="#263238"/>
<path d="M160.875 160.132C161.011 159.756 167.895 157.27 167.991 164.585C168.079 171.692 160.899 170.293 160.891 170.093C160.883 169.893 160.875 160.132 160.875 160.132Z" fill="#FFBE9D"/>
<path d="M163.018 167.375C163.018 167.375 163.138 167.463 163.354 167.559C163.651 167.678 163.983 167.678 164.281 167.559C165.025 167.279 165.648 166.08 165.672 164.801C165.68 164.19 165.554 163.584 165.304 163.026C165.236 162.805 165.116 162.603 164.953 162.439C164.79 162.275 164.59 162.153 164.369 162.083C164.226 162.047 164.074 162.063 163.942 162.127C163.809 162.191 163.702 162.3 163.641 162.434C163.546 162.634 163.593 162.77 163.554 162.786C163.514 162.802 163.402 162.666 163.458 162.37C163.495 162.195 163.591 162.037 163.729 161.923C163.924 161.778 164.167 161.712 164.409 161.739C164.702 161.794 164.976 161.923 165.205 162.113C165.434 162.303 165.611 162.549 165.72 162.826C166.026 163.442 166.18 164.122 166.168 164.809C166.168 166.24 165.368 167.583 164.385 167.895C164.194 167.951 163.994 167.964 163.798 167.933C163.601 167.903 163.414 167.83 163.25 167.719C163.034 167.551 162.994 167.391 163.018 167.375Z" fill="#EB996E"/>
<path d="M163.657 156.478C163.51 156.41 163.368 156.329 163.234 156.239C162.962 156.071 162.538 155.839 162.043 155.479C160.639 154.459 159.352 153.287 158.205 151.985C156.524 150.048 154.957 148.013 153.512 145.894C151.764 143.298 149.801 140.854 147.644 138.586C146.49 137.459 145.22 136.456 143.855 135.596C142.574 134.814 141.202 134.191 139.77 133.742C137.34 132.964 134.785 132.649 132.239 132.814C130.521 132.919 128.824 133.252 127.194 133.806C126.61 133.982 126.179 134.181 125.875 134.293C125.726 134.363 125.57 134.419 125.411 134.461C125.551 134.373 125.698 134.298 125.851 134.237C126.274 134.029 126.709 133.844 127.154 133.686C128.783 133.083 130.49 132.714 132.223 132.591C134.8 132.382 137.392 132.675 139.858 133.454C141.317 133.905 142.716 134.533 144.023 135.325C145.411 136.191 146.701 137.207 147.868 138.355C150.04 140.633 152.008 143.097 153.752 145.718C155.185 147.835 156.728 149.877 158.373 151.834C159.501 153.136 160.754 154.325 162.114 155.383C162.602 155.751 163.01 155.991 163.266 156.183C163.405 156.269 163.536 156.368 163.657 156.478Z" fill="#455A64"/>
<path d="M161.875 158.493C161.987 160.428 162.074 162.49 161.179 164.209C160.284 165.928 158.021 167.103 156.326 166.144C154.951 165.344 154.544 163.594 154.304 162.019C153.632 157.494 153.328 152.921 152.609 148.428L161.875 158.493Z" fill="#263238"/>
<path d="M138.602 173.147C138.938 173.6 139.163 174.125 139.258 174.681C139.354 175.236 139.318 175.806 139.154 176.345C138.978 176.882 138.676 177.369 138.275 177.767C137.873 178.164 137.382 178.461 136.844 178.631C136.414 178.779 135.946 178.779 135.516 178.631C135.169 178.437 134.865 178.174 134.623 177.858C134.381 177.541 134.206 177.179 134.109 176.793C133.862 176.185 133.614 175.57 133.374 174.954C133.318 174.858 133.283 174.752 133.271 174.642C133.258 174.532 133.269 174.42 133.302 174.314C133.369 174.214 133.458 174.131 133.562 174.07C133.665 174.009 133.782 173.972 133.902 173.963L138.459 172.859" fill="#EB996E"/>
<path d="M135.612 178.448C136.318 178.537 137.034 178.44 137.691 178.168C138.46 177.924 139.108 177.398 139.506 176.697C139.736 176.263 139.833 175.771 139.786 175.282C139.756 174.778 139.631 174.284 139.418 173.827C139.215 173.376 138.924 172.971 138.562 172.635L138.443 172.524L138.291 172.58C135.269 173.643 132.91 174.178 132.934 174.314C132.958 174.45 135.389 174.122 138.467 173.083L138.195 173.027C138.497 173.322 138.743 173.668 138.922 174.051C139.113 174.418 139.223 174.822 139.247 175.235C139.27 175.649 139.206 176.062 139.058 176.449C138.725 177.058 138.191 177.533 137.547 177.792C136.412 178.288 135.596 178.344 135.612 178.448Z" fill="#263238"/>
<path d="M125.875 134.781C125.875 134.821 126.507 134.661 127.642 134.629C129.25 134.601 130.848 134.892 132.343 135.485C133.376 135.887 134.365 136.396 135.293 137.004C136.352 137.716 137.367 138.493 138.331 139.33C140.566 141.215 142.565 143.362 144.287 145.726C145.19 146.997 145.989 148.3 146.853 149.507C147.677 150.68 148.635 151.753 149.707 152.705C151.548 154.264 153.562 155.605 155.711 156.702C157.526 157.67 159.053 158.341 160.1 158.805L161.315 159.324C161.452 159.392 161.597 159.443 161.747 159.476C161.622 159.387 161.488 159.312 161.347 159.253L160.164 158.661C159.133 158.157 157.638 157.446 155.847 156.454C153.739 155.324 151.761 153.968 149.947 152.409C148.9 151.455 147.969 150.382 147.173 149.211C146.325 148.02 145.526 146.717 144.614 145.43C142.873 143.036 140.843 140.867 138.57 138.97C137.588 138.132 136.554 137.355 135.477 136.644C134.523 136.036 133.507 135.533 132.447 135.141C130.917 134.561 129.283 134.308 127.65 134.397C127.209 134.421 126.77 134.48 126.339 134.573C126.178 134.628 126.023 134.698 125.875 134.781Z" fill="#455A64"/>
<path d="M162.067 154.096C162.259 154.265 162.471 154.41 162.698 154.528L164.497 155.583L165.104 155.927C165.347 156.073 165.621 156.161 165.904 156.183C166.072 156.204 166.242 156.164 166.384 156.071C166.461 156.019 166.526 155.95 166.573 155.87C166.62 155.79 166.648 155.7 166.655 155.607C166.639 155.278 166.522 154.963 166.32 154.704L164.225 151.362L163.945 151.618C164.634 152.13 165.408 152.517 166.232 152.761C167.054 153.012 167.916 153.112 168.774 153.057C168.994 153.057 169.213 153.022 169.422 152.953C169.542 152.916 169.653 152.854 169.749 152.772C169.844 152.689 169.92 152.587 169.973 152.473C170.012 152.352 170.021 152.224 170 152.099C169.979 151.974 169.929 151.855 169.853 151.754C169.732 151.592 169.595 151.442 169.446 151.306C168.518 150.396 167.712 149.369 167.047 148.252C166.459 147.199 165.947 146.107 165.512 144.982C165.545 145.308 165.62 145.627 165.736 145.934C166.006 146.789 166.365 147.615 166.807 148.396C167.453 149.569 168.26 150.646 169.206 151.594C169.47 151.842 169.733 152.129 169.629 152.393C169.525 152.657 169.142 152.729 168.766 152.737C167.131 152.815 165.517 152.333 164.193 151.37L163.346 150.746L163.913 151.634L166.048 154.951C166.212 155.149 166.315 155.391 166.344 155.647C166.344 155.847 166.168 155.967 165.936 155.951C165.48 155.858 165.046 155.679 164.657 155.423L162.802 154.464C162.572 154.313 162.325 154.189 162.067 154.096Z" fill="#455A64"/>
<g opacity="0.3">
<path d="M117.289 258.346C119.279 251.726 122.965 245.33 128.825 241.661C133.622 238.663 139.418 237.736 145.062 237.528C155.279 237.16 165.464 238.935 175.338 241.589C190.855 245.754 206.069 252.278 218.037 262.999L220.931 265.093C211.457 267.835 201.28 265.781 191.823 262.959C182.365 260.136 172.979 256.523 163.114 256.139C157.222 255.907 151.122 256.827 145.526 254.964C143.255 254.204 141.001 252.981 138.618 253.253C135.78 253.565 133.638 255.883 131.775 258.05L113.923 278.78C114.803 271.921 115.306 264.965 117.289 258.346Z" fill="black"/>
</g>
<path d="M210.29 219.508C210.29 219.508 230.341 242.173 231.875 250.199C233.41 258.226 231.875 261.703 224.896 264.326C217.917 266.948 171.7 249.671 171.7 249.671L179.551 236.241L204.422 241.125L195.252 233.035L203.583 225.552L210.29 219.508Z" fill="#FFBE9D"/>
<path d="M156.374 210.066L158.725 238.751C158.763 239.217 158.617 239.68 158.318 240.04C158.019 240.4 157.591 240.629 157.126 240.678L139.434 242.564C138.96 242.614 138.486 242.473 138.116 242.173C137.746 241.873 137.51 241.439 137.459 240.965L133.998 211.002C133.969 210.754 133.991 210.504 134.064 210.266C134.137 210.028 134.258 209.808 134.421 209.619C134.583 209.431 134.783 209.278 135.007 209.17C135.231 209.063 135.476 209.003 135.724 208.995L154.536 208.395C154.998 208.384 155.447 208.551 155.79 208.862C156.132 209.174 156.342 209.605 156.374 210.066Z" fill="#263238"/>
<path d="M147.492 222.81C148.044 222.858 160.052 224.992 160.052 224.992L174.354 235.025L179.583 236.241L176.441 250.919L171.732 249.695C169.277 249.8 166.817 249.747 164.369 249.536C160.707 249.192 149.115 248.304 149.115 248.304L143.135 244.987C143.135 244.987 141.217 241.845 141.217 240.989C141.194 240.738 141.242 240.485 141.355 240.259C141.468 240.034 141.643 239.844 141.858 239.713C142.074 239.581 142.322 239.513 142.575 239.515C142.827 239.518 143.074 239.591 143.287 239.726C144.51 240.422 152.881 240.598 154.975 239.726C154.975 239.726 142.768 238.839 141.201 236.84C139.634 234.842 140.153 233.267 142.072 233.267C143.991 233.267 150.962 234.314 153.057 234.138C155.151 233.962 157.765 233.97 158.293 232.923C158.821 231.876 157.246 231.004 157.246 231.004L154.975 229.261C154.975 229.261 146.077 227.662 145.558 225.768C145.447 225.445 145.411 225.102 145.454 224.763C145.496 224.425 145.615 224.101 145.801 223.815C145.988 223.53 146.237 223.291 146.531 223.117C146.824 222.942 147.153 222.837 147.492 222.81Z" fill="#FFBE9D"/>
<path d="M204.694 241.325C204.873 241.226 205.067 241.158 205.269 241.125C205.795 240.99 206.329 240.893 206.868 240.837C208.671 240.629 210.496 240.729 212.265 241.133C214.037 241.529 215.725 242.232 217.253 243.212C217.716 243.504 218.155 243.833 218.564 244.195C218.86 244.451 219.004 244.603 218.988 244.619C218.972 244.635 218.277 244.147 217.101 243.46C215.565 242.577 213.905 241.93 212.177 241.541C210.446 241.155 208.67 241.017 206.9 241.133C205.549 241.205 204.71 241.373 204.694 241.325Z" fill="#EB996E"/>
<path d="M143.415 222.194C143.415 222.194 133.214 223.849 132.566 224.497C131.919 225.144 119.08 240.877 119.08 240.877L125.635 253.757L137.123 247.537C138.293 247.015 139.515 246.618 140.769 246.354C140.769 246.354 152.369 244.531 153.121 243.156C153.872 241.781 153.44 241.437 152.577 241.221C151.714 241.005 144.782 241.797 143.239 242.085C141.705 242.234 140.16 242.234 138.626 242.085C138.626 242.085 143.423 240.957 144.526 240.582C145.63 240.206 156.406 237.784 156.231 235.857C156.055 233.93 154.712 233.219 147.964 235.057C144.256 236.117 140.434 236.729 136.58 236.88L151.506 231.676C151.506 231.676 157.518 229.741 155.583 228.022C153.648 226.303 140.769 229.853 140.769 229.853L135.077 231.995L136.676 228.566C136.676 228.566 144.766 226.167 145.806 225.368C147.093 224.369 147.269 223.441 146.301 222.61C145.334 221.778 143.415 222.194 143.415 222.194Z" fill="#FFBE9D"/>
<path d="M96.4869 240.15L115.234 241.749L115.05 246.889L119.048 240.845L125.603 253.725C125.603 253.725 123.205 261.384 121.95 265.613C118.528 276.941 112.964 289.597 106.12 288.981C97.9099 288.182 91.914 278.484 92.0499 272.192C92.2018 266.492 96.4869 240.15 96.4869 240.15Z" fill="#FFBE9D"/>
<path d="M119.08 240.877C119.08 240.877 119.192 240.718 119.431 240.414L120.471 239.103L124.524 234.082L130.968 226.191L131.935 225.032C132.095 224.832 132.263 224.632 132.447 224.433C132.674 224.265 132.932 224.143 133.206 224.073C134.229 223.769 135.301 223.545 136.404 223.313C138.602 222.866 140.937 222.45 143.391 222.042C144.013 221.901 144.654 221.871 145.286 221.954C145.619 221.998 145.94 222.109 146.229 222.282C146.522 222.47 146.766 222.724 146.941 223.025C147.032 223.185 147.089 223.363 147.107 223.546C147.125 223.729 147.104 223.914 147.045 224.089C146.925 224.419 146.734 224.72 146.485 224.968C146.251 225.224 145.982 225.445 145.686 225.624C145.374 225.784 145.07 225.92 144.75 226.047C142.232 227.031 139.546 227.854 136.756 228.71L136.876 228.606L135.277 232.043L135.037 231.788L140.729 229.637C143.167 228.981 145.678 228.39 148.276 227.91C149.598 227.661 150.932 227.482 152.273 227.375C152.957 227.315 153.644 227.315 154.328 227.375C154.691 227.4 155.047 227.483 155.383 227.622C155.572 227.696 155.742 227.811 155.88 227.959C156.019 228.107 156.122 228.284 156.183 228.478C156.223 228.678 156.212 228.886 156.152 229.081C156.092 229.276 155.984 229.454 155.839 229.597C155.602 229.861 155.334 230.095 155.039 230.293C154.446 230.673 153.82 230.999 153.169 231.268C151.873 231.82 150.53 232.219 149.171 232.699C146.517 233.634 143.815 234.57 141.089 235.521L136.7 237.056L136.628 236.648C140.19 236.493 143.725 235.957 147.173 235.049C148.852 234.571 150.558 234.189 152.281 233.906C153.149 233.754 154.036 233.754 154.903 233.906C155.367 233.996 155.784 234.248 156.079 234.618C156.335 235.01 156.471 235.468 156.47 235.937C156.448 236.194 156.331 236.433 156.143 236.608C155.989 236.771 155.817 236.916 155.631 237.04C155.276 237.273 154.905 237.479 154.52 237.656C153.766 238.003 152.995 238.309 152.209 238.575C150.666 239.111 149.115 239.558 147.588 239.966L145.318 240.574C144.574 240.766 143.831 241.029 143.087 241.205C141.608 241.581 140.145 241.933 138.714 242.268V241.909C140.389 242.108 142.082 242.086 143.751 241.845C145.398 241.605 147.013 241.429 148.548 241.269C149.347 241.197 150.147 241.125 150.89 241.077C151.274 241.077 151.69 241.077 152.049 241.077C152.249 241.058 152.45 241.058 152.649 241.077C152.845 241.121 153.036 241.188 153.217 241.277C153.322 241.324 153.416 241.394 153.492 241.481C153.567 241.568 153.624 241.67 153.656 241.781C153.713 241.988 153.713 242.206 153.656 242.412C153.604 242.596 153.537 242.775 153.456 242.948L153.328 243.204C153.277 243.3 153.206 243.384 153.121 243.452C152.505 243.865 151.824 244.17 151.106 244.355C148.563 245.072 145.982 245.649 143.375 246.082L141.608 246.378C141.042 246.458 140.482 246.572 139.93 246.721C138.896 246.955 137.896 247.32 136.956 247.809L128.649 252.254L126.451 253.413L125.883 253.701L125.691 253.789L125.867 253.677L126.427 253.357L128.593 252.15L136.852 247.617C138.666 246.61 140.937 246.234 143.327 245.826C145.921 245.38 148.488 244.793 151.018 244.067C151.691 243.891 152.331 243.608 152.913 243.228C152.969 243.18 153.018 243.123 153.057 243.06L153.177 242.82C153.252 242.663 153.313 242.5 153.36 242.332C153.456 241.989 153.4 241.693 153.097 241.533C152.937 241.459 152.771 241.4 152.601 241.357C152.425 241.345 152.249 241.345 152.073 241.357C151.698 241.357 151.314 241.357 150.938 241.405C150.139 241.453 149.395 241.525 148.604 241.605C147.005 241.765 145.406 241.949 143.807 242.189C142.113 242.444 140.392 242.47 138.69 242.268C138.644 242.268 138.599 242.25 138.566 242.217C138.533 242.184 138.514 242.139 138.514 242.093C138.514 242.046 138.533 242.001 138.566 241.968C138.599 241.935 138.644 241.917 138.69 241.917C140.121 241.573 141.584 241.229 143.055 240.845C143.807 240.67 144.518 240.414 145.278 240.206L147.548 239.598C149.075 239.183 150.618 238.743 152.145 238.207C152.918 237.944 153.675 237.639 154.416 237.296C154.783 237.132 155.136 236.936 155.471 236.712C155.775 236.496 156.135 236.201 156.135 235.913C156.135 235.535 156.023 235.165 155.815 234.849C155.579 234.554 155.244 234.355 154.871 234.29C154.054 234.146 153.218 234.146 152.401 234.29C150.694 234.577 149.005 234.959 147.341 235.433C143.859 236.348 140.289 236.884 136.692 237.032C136.665 237.034 136.637 237.031 136.611 237.022C136.586 237.013 136.562 236.998 136.543 236.979C136.523 236.96 136.507 236.937 136.497 236.912C136.487 236.887 136.483 236.859 136.484 236.832C136.483 236.789 136.495 236.746 136.52 236.71C136.544 236.675 136.579 236.647 136.62 236.632L141.009 235.097L149.099 232.275C150.418 231.796 151.77 231.388 153.033 230.86C153.659 230.599 154.26 230.283 154.831 229.917C155.109 229.744 155.362 229.534 155.583 229.293C155.684 229.2 155.761 229.084 155.807 228.954C155.853 228.825 155.866 228.686 155.847 228.55C155.679 228.006 155.007 227.798 154.36 227.75C153.7 227.694 153.037 227.694 152.377 227.75C151.057 227.853 149.744 228.029 148.444 228.278C145.862 228.75 143.351 229.333 140.929 229.981L135.237 232.123C135.19 232.142 135.138 232.141 135.092 232.122C135.045 232.103 135.008 232.066 134.989 232.019C134.973 231.97 134.973 231.917 134.989 231.868C135.548 230.676 136.108 229.469 136.588 228.438C136.61 228.39 136.65 228.352 136.7 228.334C139.474 227.534 142.176 226.679 144.694 225.712C145 225.592 145.299 225.456 145.59 225.304C145.858 225.144 146.103 224.948 146.317 224.72C146.551 224.546 146.719 224.298 146.794 224.017C146.87 223.736 146.848 223.437 146.733 223.169C146.585 222.917 146.379 222.704 146.134 222.546C145.888 222.387 145.609 222.289 145.318 222.258C144.729 222.18 144.131 222.207 143.551 222.338C141.105 222.738 138.754 223.137 136.572 223.577C135.477 223.801 134.405 224.025 133.374 224.313C133.141 224.375 132.92 224.475 132.718 224.608L132.223 225.184L131.247 226.335L124.748 234.178L120.631 239.143L119.551 240.43C119.215 240.734 119.08 240.877 119.08 240.877Z" fill="#EB996E"/>
<path d="M86.5095 325.86L54.3392 339.259L66.9867 353.921L94.4801 348.549L86.5095 325.86Z" fill="#FFBE9D"/>
<path d="M172.468 297.743C172.468 297.743 174.066 334.718 170.869 341.226C167.671 347.733 134.829 348.669 134.829 348.669L83.1438 352.386L76.6042 328.314C76.6042 328.314 113.867 310.055 117.377 307.96C120.886 305.866 129.233 302.164 129.233 302.164L141.544 285.615L172.468 297.743Z" fill="#263238"/>
<path d="M112.524 349.564C112.652 349.5 112.786 349.449 112.924 349.412L114.107 349.036L118.504 347.725L133.302 343.464H133.358C134.193 343.445 135.026 343.375 135.852 343.256C136.66 343.148 137.461 342.993 138.251 342.793C139.05 342.553 139.794 342.361 140.513 342.057C141.909 341.527 143.249 340.858 144.51 340.058C146.667 338.701 148.59 337.003 150.203 335.03C151.283 333.691 152.208 332.235 152.961 330.689C153.233 330.145 153.392 329.697 153.536 329.41C153.592 329.256 153.665 329.108 153.752 328.97C153.726 329.132 153.68 329.29 153.616 329.442C153.496 329.737 153.36 330.241 153.113 330.761C152.406 332.349 151.507 333.845 150.434 335.214C148.83 337.244 146.898 338.992 144.718 340.386C143.429 341.207 142.061 341.895 140.633 342.441C139.906 342.753 139.114 342.953 138.331 343.2C137.524 343.4 136.707 343.557 135.884 343.672C135.042 343.791 134.193 343.86 133.342 343.88H133.39L118.56 348.013L114.131 349.196L112.924 349.5C112.794 349.537 112.659 349.559 112.524 349.564Z" fill="#455A64"/>
<path d="M116.249 309.047L112.524 256.939C112.524 256.939 114.922 218.221 93.0731 220.291C71.2239 222.362 72.7348 256.563 72.7348 256.563C72.7348 256.563 74.0539 303.403 75.381 310.207C76.7081 317.01 77.2358 324.541 81.6008 327.379L101.443 324.933L116.249 309.047Z" fill="#263238"/>
<path d="M105.201 230.492L109.998 243.388L105.201 291.883C105.201 291.883 77.068 293.394 77.3558 292.635C77.6436 291.875 73.1027 268.275 73.1027 268.275C73.1027 268.275 72.3592 237.096 80.8574 231.436C89.3557 225.776 105.201 230.492 105.201 230.492Z" fill="#263238"/>
<path d="M104.114 291.939L103.002 315.123L82.6721 325.268L78.7708 292.834L104.114 291.939Z" fill="#FFBE9D"/>
<path d="M141.528 285.615L118.088 277.86L106.152 289.013L113.739 311.742L132.383 304.339L141.528 285.615Z" fill="#263238"/>
<path d="M76.5723 328.314C76.6526 328.256 76.7383 328.205 76.8281 328.163L77.6276 327.755L80.6255 326.212L91.6741 320.616L108.079 312.373L117.776 307.52L122.909 304.962L125.531 303.651L126.858 302.988C127.298 302.749 127.755 302.543 128.225 302.372C130.085 301.651 132.041 301.212 134.029 301.069C135.953 300.911 137.889 300.992 139.794 301.309C143.393 301.912 146.846 303.189 149.971 305.074C152.794 306.773 155.341 308.892 157.526 311.358C159.421 313.502 161.103 315.826 162.546 318.297C164.618 321.881 166.339 325.656 167.687 329.57C168.174 330.945 168.486 332.024 168.742 332.767C168.846 333.119 168.926 333.399 168.99 333.607L169.062 333.895C169.013 333.807 168.975 333.712 168.95 333.615L168.662 332.815C168.414 332.088 168.047 331.017 167.535 329.618C166.138 325.733 164.385 321.987 162.298 318.425C160.844 315.984 159.16 313.687 157.27 311.566C155.1 309.136 152.574 307.05 149.779 305.378C146.689 303.531 143.28 302.278 139.73 301.684C137.857 301.377 135.953 301.302 134.061 301.461C132.116 301.597 130.202 302.029 128.385 302.74C127.92 302.903 127.468 303.104 127.034 303.339L125.707 304.003L123.085 305.314L117.952 307.864L108.247 312.701L91.802 320.855L80.6895 326.324L77.6675 327.787L76.8681 328.163L76.5723 328.314Z" fill="#455A64"/>
<path d="M122.038 303.347C122.025 302.171 121.918 300.997 121.718 299.838C121.064 297.071 119.985 294.423 118.52 291.987C117.017 289.541 115.733 286.968 114.682 284.296C114.388 283.472 114.163 282.624 114.011 281.762C113.941 281.45 113.911 281.13 113.923 280.81C114.003 280.81 114.163 282.154 114.954 284.192C116.082 286.813 117.394 289.351 118.88 291.787C120.397 294.248 121.479 296.953 122.078 299.782C122.228 300.647 122.279 301.527 122.229 302.404C122.21 302.726 122.146 303.043 122.038 303.347Z" fill="#455A64"/>
<path d="M73.1027 268.275C73.1385 268.354 73.1627 268.437 73.1746 268.523L73.3345 269.274C73.4784 269.962 73.6783 270.937 73.9261 272.168C74.4298 274.687 75.1413 278.332 75.9727 282.841C76.3884 285.096 76.8441 287.566 77.2678 290.236C77.3718 290.908 77.4757 291.579 77.5397 292.291C77.5477 292.389 77.5477 292.488 77.5397 292.587V292.682C77.5397 292.73 77.5397 292.682 77.5397 292.603V292.547C77.5397 292.547 77.5397 292.547 77.5876 292.547C77.7514 292.578 77.9169 292.599 78.0833 292.611C78.4271 292.611 78.7788 292.611 79.1386 292.611C80.5696 292.611 82.0486 292.611 83.5596 292.563C89.6195 292.395 96.279 292.083 103.266 291.763L105.225 291.659L105.033 291.843C106.392 278.364 107.623 266.26 108.511 257.466C108.966 253.117 109.31 249.592 109.598 247.129C109.734 245.93 109.846 244.995 109.918 244.331L110.014 243.604C110.001 243.521 110.001 243.438 110.014 243.356C110.024 243.438 110.024 243.521 110.014 243.604C110.014 243.795 110.014 244.035 109.958 244.339C109.902 245.003 109.822 245.938 109.718 247.145C109.486 249.616 109.158 253.141 108.759 257.498C107.903 266.292 106.72 278.388 105.401 291.875V292.059H105.225L103.266 292.163C96.271 292.515 89.6115 292.818 83.5436 292.962C82.0326 292.962 80.5536 293.018 79.1066 292.962L78.0273 292.914C77.8423 292.901 77.6581 292.877 77.4757 292.842C77.4118 292.842 77.3878 292.842 77.2838 292.754C77.1799 292.666 77.2838 292.754 77.2119 292.658C77.2046 292.622 77.2046 292.584 77.2119 292.547C77.2119 292.499 77.3398 292.547 77.2119 292.547V292.507C77.2119 292.507 77.2119 292.355 77.2119 292.291C77.1639 291.611 77.052 290.924 76.9561 290.26C76.5483 287.598 76.1086 285.128 75.7169 282.865C74.9174 278.372 74.2619 274.727 73.7982 272.176C73.5823 270.937 73.4065 269.962 73.2865 269.266C73.2386 268.954 73.1986 268.699 73.1666 268.467C73.1381 268.406 73.1166 268.341 73.1027 268.275Z" fill="#455A64"/>
<path d="M100.292 226.671C100.52 226.828 100.725 227.016 100.9 227.231C101.429 227.762 101.929 228.322 102.395 228.91C103.964 230.838 105.305 232.941 106.392 235.177C107.455 237.416 108.26 239.768 108.79 242.189C108.955 242.923 109.083 243.664 109.174 244.411C109.225 244.674 109.241 244.943 109.222 245.211C109.15 245.211 108.966 244.059 108.503 242.237C107.287 237.471 105.135 232.994 102.171 229.069C101.028 227.582 100.236 226.719 100.292 226.671Z" fill="#455A64"/>
<path d="M123.125 302.26C123.13 301.989 123.17 301.721 123.245 301.461C123.349 300.965 123.525 300.253 123.78 299.39C125.113 294.857 127.185 290.576 129.912 286.719C130.44 285.983 130.888 285.399 131.207 285.016C131.527 284.632 131.727 284.416 131.751 284.44C131.775 284.464 131.143 285.375 130.152 286.878C128.868 288.835 127.712 290.872 126.69 292.978C125.677 295.088 124.795 297.259 124.052 299.478C123.485 301.197 123.189 302.276 123.125 302.26Z" fill="#455A64"/>
<path d="M158.269 298.71C158.333 298.71 158.629 299.51 159.245 300.789C160.856 304.104 163.201 307.008 166.104 309.279C167.215 310.151 167.967 310.614 167.927 310.678C167.725 310.619 167.534 310.53 167.359 310.415C166.864 310.143 166.386 309.841 165.928 309.511C162.865 307.328 160.461 304.343 158.981 300.885C158.755 300.364 158.561 299.83 158.397 299.286C158.328 299.101 158.284 298.907 158.269 298.71Z" fill="#455A64"/>
<path d="M55.1387 354.521C43.0429 354.161 39.997 354.609 27.9091 354.249C24.9511 354.153 14.2223 354.753 11.72 353.186C9.44158 351.747 6.53154 350.428 5.89197 347.813C4.8047 343.408 5.89197 338.372 9.93724 335.518C11.334 334.546 12.9594 333.953 14.6541 333.799C21.7772 333.079 28.4128 338.148 35.512 336.453C37.4307 335.997 39.1415 334.854 41.0522 334.382C43.8962 333.772 46.8643 334.188 49.4306 335.558C52.0208 336.829 52.6284 337.037 52.6284 337.037L65.2279 332.464L69.6569 354.585L55.1387 354.521Z" fill="#455A64"/>
<path d="M65.3399 327.219L58.7044 329.546C58.2157 329.717 57.8079 330.064 57.5598 330.519C57.3118 330.974 57.241 331.504 57.3613 332.008L63.0295 355.72C63.1479 356.225 63.4499 356.669 63.8768 356.964C64.3037 357.26 64.8251 357.386 65.3399 357.319L72.1353 356.447C72.425 356.409 72.7035 356.311 72.9529 356.159C73.2023 356.007 73.4172 355.804 73.5835 355.564C73.7499 355.323 73.8643 355.051 73.9191 354.764C73.974 354.477 73.9682 354.182 73.9021 353.897L68.098 328.77C68.0365 328.477 67.9131 328.2 67.7359 327.959C67.5587 327.717 67.332 327.516 67.0708 327.369C66.8096 327.222 66.5201 327.133 66.2215 327.107C65.923 327.081 65.6224 327.119 65.3399 327.219Z" fill="#455A64"/>
<path d="M63.1973 356.647C62.6609 355.503 62.2223 354.316 61.8862 353.098C61.1587 350.883 60.2313 347.789 59.3999 344.304C58.5684 340.818 57.9848 337.66 57.6651 335.342C57.4972 334.19 57.3932 333.247 57.3373 332.6C57.2883 332.263 57.2883 331.921 57.3373 331.584C57.6828 332.797 57.9498 334.031 58.1367 335.278C58.5605 337.564 59.192 340.714 60.0235 344.168C60.8549 347.621 61.7183 350.715 62.3419 352.962C62.7087 354.17 62.9945 355.401 63.1973 356.647Z" fill="#263238"/>
<path d="M58.5444 335.022C58.4325 334.934 60.4311 333.191 63.549 332.624C66.6669 332.056 69.1452 332.983 69.0653 333.103C68.9853 333.223 66.6029 332.64 63.6529 333.191C60.7029 333.743 58.6483 335.174 58.5444 335.022Z" fill="#263238"/>
<path d="M59.5357 343.992C59.4878 343.84 61.9341 342.905 65.132 342.105C68.3298 341.306 70.9041 340.938 70.936 341.09C70.968 341.242 68.4097 341.889 65.2679 342.689C62.126 343.488 59.5837 344.144 59.5357 343.992Z" fill="#263238"/>
<path d="M62.7736 353.25C62.7736 353.074 65.3798 353.322 68.2099 352.042C71.04 350.763 72.6309 348.725 72.7668 348.845C72.9027 348.965 72.511 349.46 71.7915 350.228C69.8662 352.23 67.2294 353.393 64.4524 353.465C63.8836 353.53 63.3077 353.456 62.7736 353.25Z" fill="#263238"/>
<path d="M104.106 307.744L102.994 315.131L82.6722 325.268L80.1459 309.871L104.106 307.744Z" fill="#455A64"/>
<path d="M77.0199 303.875L78.2911 310.91C78.3863 311.431 78.671 311.898 79.0903 312.221C79.5095 312.545 80.0336 312.701 80.5615 312.661L105.345 310.742C105.872 310.701 106.365 310.465 106.728 310.081C107.091 309.697 107.299 309.192 107.311 308.664L107.487 301.708C107.496 301.411 107.442 301.115 107.329 300.84C107.217 300.565 107.047 300.317 106.833 300.111C106.618 299.906 106.363 299.747 106.083 299.646C105.803 299.546 105.505 299.504 105.209 299.526L79.0026 301.365C78.7001 301.38 78.4044 301.46 78.1353 301.599C77.8663 301.738 77.6299 301.933 77.4422 302.17C77.2545 302.408 77.1197 302.683 77.0469 302.977C76.9741 303.271 76.9649 303.577 77.0199 303.875Z" fill="#455A64"/>
<path d="M106.272 310.718C105.036 311.069 103.775 311.32 102.499 311.47C100.148 311.846 96.9026 312.269 93.273 312.573C89.6435 312.877 86.3657 312.933 83.9913 312.893C82.8001 312.893 81.8407 312.829 81.1772 312.781C80.8286 312.786 80.4811 312.74 80.1459 312.645C81.4206 312.513 82.702 312.457 83.9833 312.477C86.3817 312.413 89.6275 312.277 93.233 311.989C96.8386 311.702 100.084 311.334 102.443 311.062C103.709 310.853 104.989 310.739 106.272 310.718Z" fill="#263238"/>
<path d="M83.7754 311.941C83.6715 312.037 82.2404 309.751 82.1765 306.529C82.1125 303.307 83.4236 300.933 83.5355 301.053C83.6475 301.173 82.6721 303.451 82.7361 306.513C82.8 309.575 83.9513 311.87 83.7754 311.941Z" fill="#263238"/>
<path d="M92.9612 312.381C92.8013 312.381 92.2496 309.775 91.9458 306.465C91.642 303.155 91.698 300.469 91.8579 300.469C92.0178 300.469 92.2257 303.131 92.5294 306.417C92.8332 309.703 93.1211 312.357 92.9612 312.381Z" fill="#263238"/>
<path d="M102.787 310.598C102.603 310.598 103.274 307.992 102.435 304.938C101.595 301.884 99.7966 299.958 99.9485 299.846C100.1 299.734 100.524 300.197 101.18 301.045C102.888 303.3 103.638 306.139 103.266 308.944C103.24 309.525 103.076 310.093 102.787 310.598Z" fill="#263238"/>
</svg>
