<svg width="120" height="120" viewBox="0 0 120 120" fill="none" xmlns="http://www.w3.org/2000/svg">
<circle cx="60" cy="60" r="55.5" fill="white" stroke="#DDDDDD" stroke-width="9"/>
<g clip-path="url(#clip0_1_3055)">
<path d="M77.3254 53.8H61.6504V59.575C61.6504 63.669 58.3194 67 54.2254 67C50.1313 67 46.8004 63.669 46.8004 59.575V47.035L40.1076 51.0568C38.1173 52.2428 36.9004 54.3981 36.9004 56.7081V61.5859L28.6504 66.3503C27.0726 67.2578 26.526 69.279 27.4438 70.8568L35.6938 85.15C36.6013 86.7278 38.6226 87.264 40.2004 86.3565L50.8635 80.2H64.9504C68.5907 80.2 71.5504 77.2403 71.5504 73.6H73.2004C75.0257 73.6 76.5004 72.1253 76.5004 70.3V63.7H77.3254C78.6969 63.7 79.8004 62.5965 79.8004 61.225V56.275C79.8004 54.9034 78.6969 53.8 77.3254 53.8ZM92.5569 49.9431L84.3069 35.65C83.3994 34.0722 81.3782 33.5359 79.8004 34.4434L69.1372 40.6H58.5979C57.3604 40.6 56.1538 40.9506 55.1019 41.6003L51.6473 43.7556C50.6779 44.3537 50.1004 45.4159 50.1004 46.5503V59.575C50.1004 61.854 51.9463 63.7 54.2254 63.7C56.5044 63.7 58.3504 61.854 58.3504 59.575V50.5H77.3254C80.5119 50.5 83.1004 53.0884 83.1004 56.275V59.214L91.3504 54.4496C92.9282 53.5318 93.4644 51.5209 92.5569 49.9431Z" fill="#FA8E11"/>
</g>
<mask id="path-3-inside-1_1_3055" fill="white">
<path fill-rule="evenodd" clip-rule="evenodd" d="M81.6705 4.05026C72.3908 0.456027 62.3856 -0.765202 52.5572 0.463527C50.0925 0.771656 48.5182 3.16183 49.01 5.59651C49.5015 8.02936 51.8706 9.58344 54.3376 9.31094C56.1968 9.10557 58.0861 9.00014 60 9.00014C88.1665 9.00014 111 31.8336 111 60.0001C111 88.1667 88.1665 111 60 111C39.7673 111 22.2865 99.2183 14.0438 82.1412C12.9652 79.9065 10.3905 78.7234 8.06894 79.5996C5.74712 80.4759 4.55992 83.0774 5.60747 85.3271C9.78901 94.3076 16.1406 102.136 24.1174 108.088C33.2977 114.938 44.247 119.017 55.6715 119.844C67.0961 120.67 78.5184 118.209 88.589 112.751C98.6595 107.293 106.957 99.0669 112.502 89.044C118.047 79.021 120.606 67.6203 119.879 56.189C119.151 44.7578 115.167 33.7736 108.396 24.5345C101.626 15.2953 92.3517 8.1873 81.6705 4.05026Z"/>
</mask>
<path fill-rule="evenodd" clip-rule="evenodd" d="M81.6705 4.05026C72.3908 0.456027 62.3856 -0.765202 52.5572 0.463527C50.0925 0.771656 48.5182 3.16183 49.01 5.59651C49.5015 8.02936 51.8706 9.58344 54.3376 9.31094C56.1968 9.10557 58.0861 9.00014 60 9.00014C88.1665 9.00014 111 31.8336 111 60.0001C111 88.1667 88.1665 111 60 111C39.7673 111 22.2865 99.2183 14.0438 82.1412C12.9652 79.9065 10.3905 78.7234 8.06894 79.5996C5.74712 80.4759 4.55992 83.0774 5.60747 85.3271C9.78901 94.3076 16.1406 102.136 24.1174 108.088C33.2977 114.938 44.247 119.017 55.6715 119.844C67.0961 120.67 78.5184 118.209 88.589 112.751C98.6595 107.293 106.957 99.0669 112.502 89.044C118.047 79.021 120.606 67.6203 119.879 56.189C119.151 44.7578 115.167 33.7736 108.396 24.5345C101.626 15.2953 92.3517 8.1873 81.6705 4.05026Z" fill="white"/>
<path d="M81.6705 4.05026L78.4199 12.4427L81.6705 4.05026ZM24.1174 108.088L29.4998 100.875H29.4998L24.1174 108.088ZM55.6715 119.844L56.3208 110.867H56.3208L55.6715 119.844ZM88.589 112.751L92.8773 120.664V120.664L88.589 112.751ZM112.502 89.044L120.377 93.4005L112.502 89.044ZM119.879 56.189L128.861 55.6174V55.6174L119.879 56.189ZM108.396 24.5345L115.656 19.2146L108.396 24.5345ZM53.6737 9.39401C62.0278 8.34959 70.5322 9.38766 78.4199 12.4427L84.9211 -4.34222C74.2493 -8.47561 62.7435 -9.88 51.4407 -8.46695L53.6737 9.39401ZM55.3257 18.2565C56.8574 18.0873 58.4168 18.0001 60 18.0001V0.000140211C57.7553 0.000140211 55.5361 0.123804 53.3494 0.365346L55.3257 18.2565ZM60 18.0001C83.196 18.0001 102 36.8042 102 60.0001H120C120 26.8631 93.1371 0.000140211 60 0.000140211V18.0001ZM102 60.0001C102 83.1961 83.196 102 60 102V120C93.1371 120 120 93.1372 120 60.0001H102ZM60 102C43.3512 102 28.9474 92.3138 22.1491 78.229L5.9386 86.0534C15.6255 106.123 36.1834 120 60 120V102ZM29.4998 100.875C22.7195 95.8154 17.3207 89.1615 13.7664 81.5281L-2.55143 89.1261C2.25735 99.4537 9.5616 108.456 18.735 115.301L29.4998 100.875ZM56.3208 110.867C46.6099 110.165 37.303 106.697 29.4998 100.875L18.735 115.301C29.2923 123.179 41.884 127.87 55.0223 128.82L56.3208 110.867ZM84.3006 104.839C75.7407 109.478 66.0317 111.57 56.3208 110.867L55.0222 128.82C68.1605 129.771 81.2962 126.94 92.8773 120.664L84.3006 104.839ZM104.627 84.6874C99.9137 93.2069 92.8606 100.199 84.3006 104.839L92.8773 120.664C104.458 114.387 114.001 104.927 120.377 93.4005L104.627 84.6874ZM110.897 56.7607C111.515 66.4773 109.34 76.1679 104.627 84.6874L120.377 93.4005C126.754 81.8741 129.697 68.7634 128.861 55.6174L110.897 56.7607ZM101.137 29.8543C106.892 37.7076 110.279 47.0441 110.897 56.7607L128.861 55.6174C128.024 42.4714 123.442 29.8397 115.656 19.2146L101.137 29.8543ZM78.4199 12.4427C87.499 15.9592 95.3817 22.0011 101.137 29.8543L115.656 19.2146C107.869 8.58962 97.2045 0.41538 84.9211 -4.34222L78.4199 12.4427ZM22.1491 78.229C19.2653 72.2544 12.0335 68.4837 4.89102 71.1793L11.2469 88.0199C8.74746 88.9632 6.66514 87.5586 5.9386 86.0534L22.1491 78.229ZM4.89102 71.1793C-1.89814 73.7417 -5.99905 81.7218 -2.55143 89.1261L13.7664 81.5281C15.1189 84.4329 13.3924 87.2101 11.2469 88.0199L4.89102 71.1793ZM40.1882 7.37858C41.6987 14.8561 48.7279 18.9853 55.3257 18.2565L53.3494 0.365346C55.0132 0.181565 57.3042 1.20261 57.8318 3.81443L40.1882 7.37858ZM51.4407 -8.46695C43.3335 -7.4534 38.7509 0.263714 40.1882 7.37858L57.8318 3.81443C58.2854 6.05994 56.8516 8.99671 53.6737 9.39401L51.4407 -8.46695Z" fill="#FA8E11" mask="url(#path-3-inside-1_1_3055)"/>
<defs>
<clipPath id="clip0_1_3055">
<rect width="66" height="52.8" fill="white" transform="translate(27 34)"/>
</clipPath>
</defs>
</svg>
