<svg width="120" height="120" viewBox="0 0 120 120" fill="none" xmlns="http://www.w3.org/2000/svg">
<circle cx="60" cy="60" r="55.5" fill="white" stroke="#DDDDDD" stroke-width="9"/>
<g clip-path="url(#clip0_1_3079)">
<path d="M64.1252 48.5531V44.9308C60.49 40.2515 58.0537 34.7085 57.1513 28.7917C56.8806 27.0515 54.7021 26.3683 53.5677 27.7218C50.8478 30.9316 48.708 34.6956 47.2642 38.8722C51.6728 43.8093 57.5767 47.1996 64.1252 48.5531ZM78.5627 35.2499C72.865 35.2499 68.2502 39.8777 68.2502 45.5753V53.2324C54.7924 52.4332 43.3713 44.1445 38.215 32.3882C37.506 30.7769 35.2244 30.6867 34.4767 32.2722C32.3369 36.7968 31.1252 41.8499 31.1252 47.1867C31.1252 56.3132 35.5209 64.8339 42.0951 71.1503C43.7966 72.7875 45.4595 74.141 47.1095 75.3785L28.5599 80.0191C27.1806 80.3671 26.5619 81.9656 27.3353 83.1644C29.5783 86.632 35.1213 92.5101 47.0838 93C48.115 93.0386 49.1463 92.6648 49.9326 91.9816L58.3373 84.75H68.2502C79.6455 84.75 88.8752 75.5332 88.8752 64.1378V43.4999L93.0002 35.2499H78.5627ZM78.5627 47.6378C77.4283 47.6378 76.5002 46.7097 76.5002 45.5753C76.5002 44.441 77.4283 43.5128 78.5627 43.5128C79.697 43.5128 80.6252 44.441 80.6252 45.5753C80.6252 46.7097 79.697 47.6378 78.5627 47.6378Z" fill="#FA8E11"/>
</g>
<mask id="path-3-inside-1_1_3079" fill="white">
<path fill-rule="evenodd" clip-rule="evenodd" d="M89.6437 7.83451C78.365 1.42529 65.3507 -1.13615 52.5574 0.463431C50.0927 0.771595 48.5182 3.16181 49.01 5.59649C49.5015 8.02935 51.8706 9.58343 54.3376 9.31092C56.1968 9.10555 58.0861 9.00013 60 9.00013C88.1665 9.00013 111 31.8336 111 60.0001C111 88.1666 88.1665 111 60 111C31.8335 111 9 88.1666 9 60.0001C9 46.9566 13.8966 35.0568 21.9518 26.0386C23.6073 24.1851 23.7137 21.3498 22.0128 19.5381C20.3115 17.726 17.4492 17.6255 15.7697 19.4577C7.05837 28.9609 1.61089 41.0536 0.30488 53.9592C-1.15266 68.3622 2.64638 82.8066 11.0015 94.6288C19.3566 106.451 31.7043 114.854 45.7677 118.288C59.8312 121.722 74.6619 119.955 87.5253 113.314C100.389 106.673 110.417 95.6046 115.762 82.1506C121.106 68.6967 121.406 53.764 116.606 40.1063C111.806 26.4486 102.23 14.9868 89.6437 7.83451Z"/>
</mask>
<path fill-rule="evenodd" clip-rule="evenodd" d="M89.6437 7.83451C78.365 1.42529 65.3507 -1.13615 52.5574 0.463431C50.0927 0.771595 48.5182 3.16181 49.01 5.59649C49.5015 8.02935 51.8706 9.58343 54.3376 9.31092C56.1968 9.10555 58.0861 9.00013 60 9.00013C88.1665 9.00013 111 31.8336 111 60.0001C111 88.1666 88.1665 111 60 111C31.8335 111 9 88.1666 9 60.0001C9 46.9566 13.8966 35.0568 21.9518 26.0386C23.6073 24.1851 23.7137 21.3498 22.0128 19.5381C20.3115 17.726 17.4492 17.6255 15.7697 19.4577C7.05837 28.9609 1.61089 41.0536 0.30488 53.9592C-1.15266 68.3622 2.64638 82.8066 11.0015 94.6288C19.3566 106.451 31.7043 114.854 45.7677 118.288C59.8312 121.722 74.6619 119.955 87.5253 113.314C100.389 106.673 110.417 95.6046 115.762 82.1506C121.106 68.6967 121.406 53.764 116.606 40.1063C111.806 26.4486 102.23 14.9868 89.6437 7.83451Z" fill="#C4C4C4"/>
<path d="M89.6437 7.83451L85.1971 15.6594L89.6437 7.83451ZM0.30488 53.9592L9.25915 54.8653L0.30488 53.9592ZM11.0015 94.6288L3.6517 99.8231H3.6517L11.0015 94.6288ZM45.7677 118.288L43.6329 127.031L43.6329 127.031L45.7677 118.288ZM87.5253 113.314L91.6541 121.311H91.6541L87.5253 113.314ZM115.762 82.1506L124.126 85.4732L124.126 85.4732L115.762 82.1506ZM116.606 40.1063L125.097 37.1223V37.1223L116.606 40.1063ZM15.7697 19.4577L9.13531 13.3761L15.7697 19.4577ZM21.9518 26.0386L28.6641 32.034L21.9518 26.0386ZM52.5574 0.463431L51.4408 -8.46703L52.5574 0.463431ZM53.674 9.3939C64.5481 8.03428 75.6104 10.2116 85.1971 15.6594L94.0902 0.00967028C81.1197 -7.36101 66.1532 -10.3066 51.4408 -8.46703L53.674 9.3939ZM55.3257 18.2565C56.8574 18.0873 58.4168 18.0001 60 18.0001V0.000125838C57.7553 0.000125838 55.5361 0.123789 53.3494 0.365331L55.3257 18.2565ZM60 18.0001C83.196 18.0001 102 36.8042 102 60.0001H120C120 26.863 93.1371 0.000125838 60 0.000125838V18.0001ZM102 60.0001C102 83.1961 83.196 102 60 102V120C93.1371 120 120 93.1372 120 60.0001H102ZM60 102C36.804 102 18 83.1961 18 60.0001H-3.79448e-06C-3.79448e-06 93.1372 26.8629 120 60 120V102ZM18 60.0001C18 49.2526 22.0251 39.4667 28.6641 32.034L15.2396 20.0431C5.76809 30.6469 -3.79448e-06 44.6607 -3.79448e-06 60.0001H18ZM9.25915 54.8653C10.3692 43.8957 14.9996 33.6168 22.4041 25.5392L9.13531 13.3761C-0.882841 24.305 -7.14747 38.2114 -8.64939 53.053L9.25915 54.8653ZM18.3513 89.4345C11.2494 79.3856 8.02024 67.1079 9.25915 54.8653L-8.64939 53.053C-10.3256 69.6165 -5.95666 86.2276 3.6517 99.8231L18.3513 89.4345ZM47.9026 109.545C35.9486 106.626 25.4531 99.4834 18.3513 89.4345L3.6517 99.8231C13.2601 113.419 27.4599 123.082 43.6329 127.031L47.9026 109.545ZM83.3965 105.317C72.4626 110.962 59.8565 112.463 47.9026 109.545L43.6329 127.031C59.8058 130.98 76.8612 128.948 91.6541 121.311L83.3965 105.317ZM107.397 78.8281C102.855 90.2639 94.3304 99.6718 83.3965 105.317L91.6541 121.311C106.447 113.674 117.98 100.945 124.126 85.4732L107.397 78.8281ZM108.115 43.0904C112.195 54.6995 111.94 67.3922 107.397 78.8281L124.126 85.4732C130.272 70.0011 130.617 52.8286 125.097 37.1223L108.115 43.0904ZM85.1971 15.6594C95.8955 21.7388 104.035 31.4814 108.115 43.0904L125.097 37.1223C119.577 21.4159 108.565 8.23485 94.0902 0.00967015L85.1971 15.6594ZM28.5742 13.3779C23.6046 8.08455 14.6572 7.35223 9.13531 13.3761L22.4041 25.5392C20.2412 27.8987 17.0185 27.3675 15.4513 25.6982L28.5742 13.3779ZM28.6641 32.034C33.0927 27.0759 33.7999 18.9441 28.5742 13.3779L15.4513 25.6982C13.6276 23.7556 14.1219 21.2943 15.2396 20.0431L28.6641 32.034ZM40.1882 7.37857C41.6987 14.8561 48.7279 18.9853 55.3257 18.2565L53.3494 0.365331C55.0132 0.181551 57.3042 1.2026 57.8318 3.81441L40.1882 7.37857ZM51.4408 -8.46703C43.3342 -7.45344 38.7508 0.263163 40.1882 7.37857L57.8318 3.81441C58.2855 6.06046 56.8513 8.99663 53.674 9.3939L51.4408 -8.46703Z" fill="#FA8E11" mask="url(#path-3-inside-1_1_3079)"/>
<defs>
<clipPath id="clip0_1_3079">
<rect width="66" height="66" fill="white" transform="translate(27 27)"/>
</clipPath>
</defs>
</svg>
